<svg width="38" height="40" viewBox="0 0 38 40" fill="none" xmlns="http://www.w3.org/2000/svg">
<g filter="url(#filter0_f_1_1027)">
<ellipse cx="18.5" cy="36" rx="11.5" ry="1" fill="#3D3D3D"/>
</g>
<path d="M25.782 31.0444L18.966 31.6764L11.8643 31.0444L14.8885 27.96L16.333 27.3581L17.5968 27.8847L18.8156 27.8998L20.0494 27.8847L20.6964 27.2528L22.7577 27.96L25.782 31.0444Z" fill="url(#paint0_linear_1_1027)"/>
<path style="mix-blend-mode:screen" opacity="0.5" d="M25.782 31.0444L18.966 31.6764L11.8643 31.0444L14.8885 27.96L16.333 27.3581L17.5968 27.8847L18.8156 27.8998L20.0494 27.8847L20.6964 27.2528L22.7577 27.96L25.782 31.0444Z" fill="url(#paint1_linear_1_1027)"/>
<path style="mix-blend-mode:screen" opacity="0.5" d="M16.6641 27.7494C16.2428 28.8027 15.2498 31.0897 15.1144 31.3304L13.0229 31.1499C13.1433 31.0144 14.678 28.8027 15.5357 27.7344C15.9118 27.7344 16.303 27.7494 16.6641 27.7494Z" fill="url(#paint2_linear_1_1027)"/>
<g style="mix-blend-mode:multiply" opacity="0.5">
<path d="M21.163 27.4185L22.7579 27.9601L25.7822 31.0446L22.5924 31.3455C22.5774 29.9913 21.9755 28.5921 21.163 27.4185Z" fill="#D0D0D1"/>
</g>
<path d="M25.7821 31.0446L24.7439 33.0909L20.0495 33.3316H17.5969L12.8875 33.0909L11.8493 31.0446H11.8644H25.7821Z" fill="url(#paint3_linear_1_1027)"/>
<g style="mix-blend-mode:multiply" opacity="0.5">
<path d="M25.782 31.0446L24.7439 33.0909L20.0495 33.3316H17.5969H17.4766C17.6371 33.3116 17.7975 33.2865 17.958 33.2564C18.6652 33.1661 19.3573 33.0307 20.0344 32.7749C20.9823 32.4138 21.8851 31.812 22.5923 31.0446H25.782Z" fill="#D0D0D1"/>
</g>
<path d="M25.3909 34.0385L12.2707 34.0535C12.2556 33.9933 12.2406 33.8429 12.2406 33.7827C12.2406 33.3915 12.5566 33.0755 12.9177 33.0755H24.7139C25.09 33.0755 25.3909 33.3915 25.3909 33.7827C25.3909 33.8429 25.406 33.9783 25.3909 34.0385Z" fill="url(#paint4_linear_1_1027)"/>
<g style="mix-blend-mode:multiply" opacity="0.5">
<path d="M25.3909 33.7828C25.3909 33.843 25.406 33.9784 25.3909 34.0386L12.2707 34.0536C12.2556 33.9935 12.2406 33.843 12.2406 33.7828C12.2406 33.7527 12.2456 33.7176 12.2556 33.6775H25.3909C25.3909 33.7176 25.3909 33.7527 25.3909 33.7828Z" fill="#B9B8B9"/>
</g>
<path d="M27.5876 36.8825H10.0588C10.0588 36.8825 10.0588 36.8774 10.0588 36.8674C10.0588 35.2725 11.0519 33.9635 12.2857 33.9635H25.3457C26.5946 33.9635 27.5876 35.2725 27.5876 36.8674C27.5876 36.8774 27.5876 36.8825 27.5876 36.8825Z" fill="url(#paint5_linear_1_1027)"/>
<g style="mix-blend-mode:multiply" opacity="0.5">
<path d="M27.5875 36.8674C27.5875 36.8774 27.5875 36.8825 27.5875 36.8825H14.7079C15.9116 36.7621 17.1153 36.4913 18.2438 36.1452C19.282 35.8142 21.4637 35.107 22.4417 33.9635H25.3456C26.5944 33.9635 27.5875 35.2725 27.5875 36.8674Z" fill="#D0D0D1"/>
</g>
<path d="M19.8088 1.94521C19.8088 2.3966 19.4026 2.77275 18.891 2.77275C18.3644 2.77275 17.9581 2.3966 17.9581 1.94521C17.9581 1.49383 18.3644 1.11768 18.891 1.11768C19.4026 1.11768 19.8088 1.49383 19.8088 1.94521Z" fill="url(#paint6_linear_1_1027)"/>
<path style="mix-blend-mode:screen" opacity="0.5" d="M19.8088 1.94521C19.8088 2.3966 19.4026 2.77275 18.891 2.77275C18.3644 2.77275 17.9581 2.3966 17.9581 1.94521C17.9581 1.49383 18.3644 1.11768 18.891 1.11768C19.4026 1.11768 19.8088 1.49383 19.8088 1.94521Z" fill="url(#paint7_linear_1_1027)"/>
<path style="mix-blend-mode:screen" opacity="0.5" d="M17.9581 1.99036C17.9581 1.97029 17.9581 1.95525 17.9581 1.94521C17.9581 1.49383 18.3644 1.11768 18.891 1.11768C18.9913 1.11768 19.0866 1.13272 19.1769 1.16282C19.4928 1.34337 19.538 2.0054 19.0715 2.24614C18.7104 2.42669 18.0183 2.36651 17.9581 1.99036Z" fill="url(#paint8_linear_1_1027)"/>
<path style="mix-blend-mode:multiply" opacity="0.5" d="M19.8087 1.94509C19.8087 2.39647 19.4025 2.77262 18.8909 2.77262C18.59 2.77262 18.3342 2.65225 18.1536 2.45665C18.2138 2.51684 18.3492 2.54693 18.4245 2.56198C18.5147 2.58204 18.605 2.58706 18.6953 2.57703C18.921 2.56198 19.1316 2.45665 19.2971 2.32124C19.6281 2.02032 19.583 1.40342 19.2971 1.20782C19.2871 1.20782 19.2821 1.20782 19.2821 1.20782C19.5981 1.34324 19.8087 1.61407 19.8087 1.94509Z" fill="url(#paint9_linear_1_1027)"/>
<path d="M23.4349 5.04456C23.4349 6.38367 21.4037 7.48204 18.891 7.48204C16.3783 7.48204 14.347 6.38367 14.347 5.04456C14.347 3.70546 16.3783 2.62213 18.891 2.62213C21.4037 2.62213 23.4349 3.70546 23.4349 5.04456Z" fill="url(#paint10_linear_1_1027)"/>
<path style="mix-blend-mode:screen" opacity="0.5" d="M23.4349 5.04456C23.4349 6.38367 21.4037 7.48204 18.891 7.48204C16.3783 7.48204 14.347 6.38367 14.347 5.04456C14.347 3.70546 16.3783 2.62213 18.891 2.62213C21.4037 2.62213 23.4349 3.70546 23.4349 5.04456Z" fill="url(#paint11_linear_1_1027)"/>
<g style="mix-blend-mode:screen">
<path d="M19.0714 7.34662C18.951 7.35666 18.8256 7.36167 18.6952 7.36167C16.8145 7.36167 14.7983 6.53414 14.7983 5.22512C14.7983 3.9161 16.8145 2.62213 18.6952 2.62213C18.8256 2.62213 18.951 2.62715 19.0714 2.63718C17.3561 2.75755 16.0321 3.76564 16.0321 4.98438C16.0321 6.21816 17.3561 7.22625 19.0714 7.34662Z" fill="url(#paint12_linear_1_1027)"/>
</g>
<g style="mix-blend-mode:multiply" opacity="0.5">
<path d="M23.4348 5.04456C23.4348 6.38367 21.4036 7.48204 18.8909 7.48204C18.1988 7.48204 17.5368 7.39177 16.95 7.2413C17.0001 7.2413 17.0553 7.2413 17.1155 7.2413C19.6282 7.2413 21.6594 6.15798 21.6594 4.81887C21.6594 3.84087 20.5911 3.01333 19.0564 2.62213C21.4939 2.66727 23.4348 3.73555 23.4348 5.04456Z" fill="url(#paint13_linear_1_1027)"/>
</g>
<path d="M24.1271 3.96128L21.7047 11.364H15.927L13.5045 3.96128H13.5346C13.7603 4.44275 14.2418 4.77377 14.7985 4.77377C15.5207 4.77377 16.1376 4.18697 16.1827 3.46476C16.4084 3.93119 16.8899 4.2622 17.4316 4.2622C18.1688 4.2622 18.7707 3.69045 18.8309 2.98328C18.876 3.69045 19.4778 4.27725 20.2151 4.27725C20.7568 4.27725 21.2382 3.93119 21.4639 3.46476C21.494 4.20202 22.1109 4.80386 22.8482 4.80386C23.4199 4.80386 23.9165 4.4578 24.1271 3.96128Z" fill="url(#paint14_linear_1_1027)"/>
<path style="mix-blend-mode:screen" opacity="0.5" d="M24.1271 3.96128L21.7047 11.364H15.927L13.5045 3.96128H13.5346C13.7603 4.44275 14.2418 4.77377 14.7985 4.77377C15.5207 4.77377 16.1376 4.18697 16.1827 3.46476C16.4084 3.93119 16.8899 4.2622 17.4316 4.2622C18.1688 4.2622 18.7707 3.69045 18.8309 2.98328C18.876 3.69045 19.4778 4.27725 20.2151 4.27725C20.7568 4.27725 21.2382 3.93119 21.4639 3.46476C21.494 4.20202 22.1109 4.80386 22.8482 4.80386C23.4199 4.80386 23.9165 4.4578 24.1271 3.96128Z" fill="url(#paint15_linear_1_1027)"/>
<path style="mix-blend-mode:screen" opacity="0.5" d="M17.3712 11.3639H16.5737C16.4834 10.7922 15.355 6.82 14.9487 5.33043C15.4453 5.33043 15.9418 5.0596 16.0621 4.51794C16.0722 4.47782 16.0822 4.44271 16.0922 4.41262C16.1524 4.26216 16.1976 4.0816 16.1976 3.90105C16.2176 3.80074 16.2226 3.70545 16.2126 3.61517C16.2327 3.72551 16.2577 3.83084 16.2878 3.93114C16.3631 4.14179 16.4533 4.33739 16.5436 4.53299C16.6038 4.65336 16.7844 4.99942 17.2508 5.07465C17.326 6.53413 17.3411 10.5815 17.3862 11.1383C17.3712 11.2285 17.3712 11.3038 17.3712 11.3639Z" fill="url(#paint16_linear_1_1027)"/>
<g style="mix-blend-mode:multiply" opacity="0.5">
<path d="M24.127 3.96121L21.7046 11.3639H17.1306C17.8377 11.2135 18.5298 10.7922 18.9812 10.3558C19.9442 9.45306 20.4407 7.97854 20.7868 6.72971C20.9774 6.01752 21.1429 5.30032 21.2833 4.5781C21.3585 4.23204 21.4638 3.85589 21.4638 3.47974C21.509 4.217 22.1259 4.8038 22.8481 4.8038C23.4198 4.8038 23.9164 4.45773 24.127 3.96121Z" fill="#D0D0D1"/>
</g>
<path style="mix-blend-mode:multiply" d="M16.1826 3.46476C16.4082 3.93119 16.8897 4.2622 17.4314 4.2622C18.1686 4.2622 18.7705 3.69045 18.8307 2.98328C18.8758 3.69045 19.4777 4.27725 20.2149 4.27725C20.7566 4.27725 21.2381 3.93119 21.4638 3.46476C21.4938 4.20202 22.1107 4.80386 22.848 4.80386C23.4198 4.80386 23.9163 4.4578 24.1269 3.96128L24.0667 4.15688C23.7959 4.6534 23.1188 5.70663 22.3214 5.46589C21.4186 5.19506 21.4487 3.60017 21.4487 3.60017C21.4487 3.60017 21.0575 5.11983 20.0795 5.05965C18.9661 5.01451 18.8006 3.16383 18.8006 3.16383C18.7855 3.69045 18.6802 4.96937 17.5818 5.10479C16.3481 5.25525 16.1826 3.46476 16.1826 3.46476Z" fill="url(#paint17_linear_1_1027)"/>
<path style="mix-blend-mode:multiply" d="M13.5045 3.96137H13.5346C13.7603 4.44284 14.2418 4.77386 14.7985 4.77386C15.5207 4.77386 16.1376 4.18706 16.1827 3.46484C16.273 4.35257 15.957 5.33057 14.964 5.36066C14.2568 5.39075 13.7453 4.47293 13.5045 3.96137Z" fill="url(#paint18_linear_1_1027)"/>
<path d="M21.7044 11.981V11.9961H15.9418C16.2126 11.8908 16.2126 11.4845 15.9719 11.3641H21.7044C21.4487 11.4695 21.4487 11.8757 21.7044 11.981Z" fill="url(#paint19_linear_1_1027)"/>
<path d="M23.9916 26.8165L19.3574 27.2077H18.4245L13.6398 26.8165C18.4546 17.0816 15.8667 13.7263 15.8667 13.7263H18.8157H21.7648C21.7648 13.7263 19.1768 17.0816 23.9916 26.8165Z" fill="url(#paint20_linear_1_1027)"/>
<path style="mix-blend-mode:screen" opacity="0.5" d="M23.9916 26.8165L19.3574 27.2077H18.4245L13.6398 26.8165C18.4546 17.0816 15.8667 13.7263 15.8667 13.7263H18.8157H21.7648C21.7648 13.7263 19.1768 17.0816 23.9916 26.8165Z" fill="url(#paint21_linear_1_1027)"/>
<path style="mix-blend-mode:screen" opacity="0.5" d="M16.6339 20.9486C17.3561 18.2704 17.2057 14.223 16.4082 13.7264L17.1154 13.6964C17.2809 13.6964 18.0783 16.4197 17.8075 19.9556C17.7172 21.1592 16.995 26.1546 16.664 27.0122L14.392 26.8316C15.5205 24.981 16.0772 22.9949 16.6339 20.9486Z" fill="url(#paint22_linear_1_1027)"/>
<g style="mix-blend-mode:multiply" opacity="0.5">
<path d="M21.7646 13.7263C21.7646 13.7263 19.1767 17.0816 23.9915 26.8165L21.4035 27.0271C21.6142 25.3269 20.7415 23.6568 20.1547 22.107C19.5077 20.3617 19.0864 18.4959 19.2068 16.6152C19.2519 15.8328 19.4776 15.0654 19.8538 14.3733C19.9892 14.1476 20.1397 13.937 20.3052 13.7263H21.7646Z" fill="#D0D0D1"/>
</g>
<path d="M21.6593 12.8537H15.9869C15.7462 12.8537 15.5355 12.6581 15.5355 12.4174C15.5355 12.1616 15.7462 11.966 15.9869 11.966H21.6593C21.9 11.966 22.0957 12.1616 22.0957 12.4174C22.0957 12.6581 21.9 12.8537 21.6593 12.8537Z" fill="url(#paint23_linear_1_1027)"/>
<path style="mix-blend-mode:screen" opacity="0.5" d="M17.1156 12.8537H16.2429C16.1627 12.7735 16.1025 12.6782 16.0623 12.5678C15.942 12.2669 16.1376 12.0713 16.3934 11.966H17.251C17.0403 12.1616 16.9049 12.4174 17.0403 12.7183C17.0604 12.7685 17.0855 12.8136 17.1156 12.8537Z" fill="url(#paint24_linear_1_1027)"/>
<path style="mix-blend-mode:multiply" opacity="0.5" d="M22.0957 12.4024C22.0957 12.4124 22.0957 12.4175 22.0957 12.4175C22.0957 12.6582 21.9 12.8538 21.6593 12.8538H15.9869C15.7462 12.8538 15.5355 12.6582 15.5355 12.4175C15.5355 12.4175 15.5355 12.4124 15.5355 12.4024H22.0957Z" fill="url(#paint25_linear_1_1027)"/>
<path d="M21.7046 13.7265H15.9419C15.6861 13.7265 15.4905 13.5309 15.4905 13.2901C15.4905 13.0343 15.6861 12.8387 15.9419 12.8387H21.7046C21.9453 12.8387 22.156 13.0343 22.156 13.2901C22.156 13.5309 21.9453 13.7265 21.7046 13.7265Z" fill="url(#paint26_linear_1_1027)"/>
<path style="mix-blend-mode:screen" opacity="0.5" d="M17.0854 13.7265H16.1525C15.8666 13.4857 15.7914 13.0494 16.1976 12.8387H17.1155C17.0402 12.8989 16.965 12.9742 16.9199 13.0644C16.8597 13.1999 16.8597 13.3353 16.9048 13.4707C16.9349 13.576 16.9951 13.6663 17.0854 13.7265Z" fill="url(#paint27_linear_1_1027)"/>
<path style="mix-blend-mode:multiply" opacity="0.5" d="M22.1409 13.3353C22.1259 13.5459 21.9453 13.7265 21.7046 13.7265H15.9419C15.7012 13.7265 15.5056 13.5459 15.4905 13.3203C15.5507 13.3303 15.6059 13.3353 15.6561 13.3353H22.1409Z" fill="url(#paint28_linear_1_1027)"/>
<path d="M22.7727 27.9599H14.8885L13.6547 26.8164H23.9914L22.7727 27.9599Z" fill="url(#paint29_linear_1_1027)"/>
<g style="mix-blend-mode:multiply" opacity="0.5">
<path d="M23.9916 26.8164L22.7729 27.9599H19.1016C19.7787 27.7041 20.847 27.343 21.4037 26.8164H23.9916Z" fill="#D0D0D1"/>
</g>
<g style="mix-blend-mode:screen" opacity="0.5">
<path d="M15.2347 33.9182C14.5576 34.6103 14.4072 35.9194 14.3921 36.8372H11.2324C11.3979 35.3777 12.5113 34.1289 13.3389 33.9182H15.2347Z" fill="url(#paint30_linear_1_1027)"/>
</g>
<defs>
<filter id="filter0_f_1_1027" x="3" y="31" width="31" height="10" filterUnits="userSpaceOnUse" color-interpolation-filters="sRGB">
<feFlood flood-opacity="0" result="BackgroundImageFix"/>
<feBlend mode="normal" in="SourceGraphic" in2="BackgroundImageFix" result="shape"/>
<feGaussianBlur stdDeviation="2" result="effect1_foregroundBlur_1_1027"/>
</filter>
<linearGradient id="paint0_linear_1_1027" x1="7974.18" y1="2002.82" x2="8992.95" y2="2002.82" gradientUnits="userSpaceOnUse">
<stop stop-color="#E1E2E2"/>
<stop offset="0.4" stop-color="#C3C2C2"/>
<stop offset="0.9" stop-color="#B9B7B8"/>
</linearGradient>
<linearGradient id="paint1_linear_1_1027" x1="7875.36" y1="2002.82" x2="8621.35" y2="2002.82" gradientUnits="userSpaceOnUse">
<stop stop-color="#FEFEFE"/>
<stop offset="0.9" stop-color="#C3C2C2"/>
</linearGradient>
<linearGradient id="paint2_linear_1_1027" x1="2092.86" y1="1722.91" x2="2092.86" y2="1640.2" gradientUnits="userSpaceOnUse">
<stop stop-color="#FEFEFE"/>
<stop offset="0.9" stop-color="#C3C2C2"/>
</linearGradient>
<linearGradient id="paint3_linear_1_1027" x1="7857.38" y1="1110.06" x2="9147.55" y2="1110.06" gradientUnits="userSpaceOnUse">
<stop stop-color="#E1E2E2"/>
<stop offset="0.2" stop-color="#C3C2C2"/>
<stop offset="0.9" stop-color="#B9B7B8"/>
</linearGradient>
<linearGradient id="paint4_linear_1_1027" x1="7276.23" y1="507.699" x2="8176.17" y2="507.699" gradientUnits="userSpaceOnUse">
<stop stop-color="#E1E2E2"/>
<stop offset="0.4" stop-color="#C3C2C2"/>
<stop offset="0.9" stop-color="#B9B7B8"/>
</linearGradient>
<linearGradient id="paint5_linear_1_1027" x1="9671.92" y1="1467.75" x2="11714" y2="1467.75" gradientUnits="userSpaceOnUse">
<stop stop-color="#E1E2E2"/>
<stop offset="0.4" stop-color="#C3C2C2"/>
<stop offset="0.9" stop-color="#B9B7B8"/>
</linearGradient>
<linearGradient id="paint6_linear_1_1027" x1="1146.69" y1="442.858" x2="1163.37" y2="466.358" gradientUnits="userSpaceOnUse">
<stop stop-color="#E1E2E2"/>
<stop offset="0.4" stop-color="#C3C2C2"/>
<stop offset="0.9" stop-color="#B9B7B8"/>
</linearGradient>
<linearGradient id="paint7_linear_1_1027" x1="1146.69" y1="442.858" x2="1163.37" y2="466.358" gradientUnits="userSpaceOnUse">
<stop stop-color="#FEFEFE"/>
<stop offset="0.9" stop-color="#C3C2C2"/>
</linearGradient>
<linearGradient id="paint8_linear_1_1027" x1="905.729" y1="330.03" x2="918.869" y2="349.688" gradientUnits="userSpaceOnUse">
<stop stop-color="#FEFEFE"/>
<stop offset="0.9" stop-color="#C3C2C2"/>
</linearGradient>
<linearGradient id="paint9_linear_1_1027" x1="1021.96" y1="411.655" x2="1053.75" y2="453.612" gradientUnits="userSpaceOnUse">
<stop stop-color="#E1E2E2"/>
<stop offset="0.4" stop-color="#C3C2C2"/>
<stop offset="0.9" stop-color="#B9B7B8"/>
</linearGradient>
<linearGradient id="paint10_linear_1_1027" x1="5635.2" y1="1365.34" x2="5635.2" y2="1468.37" gradientUnits="userSpaceOnUse">
<stop stop-color="#E1E2E2"/>
<stop offset="0.4" stop-color="#C3C2C2"/>
<stop offset="0.9" stop-color="#B9B7B8"/>
</linearGradient>
<linearGradient id="paint11_linear_1_1027" x1="5350.75" y1="1377.49" x2="5773.33" y2="1377.49" gradientUnits="userSpaceOnUse">
<stop stop-color="#FEFEFE"/>
<stop offset="0.9" stop-color="#C3C2C2"/>
</linearGradient>
<linearGradient id="paint12_linear_1_1027" x1="2640.19" y1="1332.06" x2="2640.19" y2="1430.17" gradientUnits="userSpaceOnUse">
<stop stop-color="#E1E2E2"/>
<stop offset="0.4" stop-color="#C3C2C2"/>
<stop offset="0.9" stop-color="#B9B7B8"/>
</linearGradient>
<linearGradient id="paint13_linear_1_1027" x1="4106.32" y1="1365.34" x2="4106.32" y2="1468.37" gradientUnits="userSpaceOnUse">
<stop stop-color="#E1E2E2"/>
<stop offset="0.4" stop-color="#C3C2C2"/>
<stop offset="0.9" stop-color="#B9B7B8"/>
</linearGradient>
<linearGradient id="paint14_linear_1_1027" x1="6202.23" y1="2394" x2="6810.9" y2="2394" gradientUnits="userSpaceOnUse">
<stop stop-color="#E1E2E2"/>
<stop offset="0.4" stop-color="#C3C2C2"/>
<stop offset="0.9" stop-color="#B9B7B8"/>
</linearGradient>
<linearGradient id="paint15_linear_1_1027" x1="6200.1" y1="2394" x2="6538.96" y2="2394" gradientUnits="userSpaceOnUse">
<stop stop-color="#FEFEFE"/>
<stop offset="0.9" stop-color="#C3C2C2"/>
</linearGradient>
<linearGradient id="paint16_linear_1_1027" x1="1651.72" y1="2158.55" x2="1919.34" y2="2595.85" gradientUnits="userSpaceOnUse">
<stop stop-color="#FEFEFE"/>
<stop offset="0.9" stop-color="#C3C2C2"/>
</linearGradient>
<linearGradient id="paint17_linear_1_1027" x1="4577.05" y1="721.331" x2="5137.92" y2="721.331" gradientUnits="userSpaceOnUse">
<stop stop-color="#E1E2E2"/>
<stop offset="0.4" stop-color="#C3C2C2"/>
<stop offset="0.9" stop-color="#B9B7B8"/>
</linearGradient>
<linearGradient id="paint18_linear_1_1027" x1="1559.51" y1="550.616" x2="1749.9" y2="550.616" gradientUnits="userSpaceOnUse">
<stop stop-color="#E1E2E2"/>
<stop offset="0.4" stop-color="#C3C2C2"/>
<stop offset="0.9" stop-color="#B9B7B8"/>
</linearGradient>
<linearGradient id="paint19_linear_1_1027" x1="3383.65" y1="226.856" x2="3625.11" y2="226.856" gradientUnits="userSpaceOnUse">
<stop stop-color="#E1E2E2"/>
<stop offset="0.6" stop-color="#B9B7B8"/>
</linearGradient>
<linearGradient id="paint20_linear_1_1027" x1="6052.85" y1="4822.53" x2="6765.05" y2="4822.53" gradientUnits="userSpaceOnUse">
<stop stop-color="#E1E2E2"/>
<stop offset="0.4" stop-color="#C3C2C2"/>
<stop offset="0.9" stop-color="#B9B7B8"/>
</linearGradient>
<linearGradient id="paint21_linear_1_1027" x1="6039.4" y1="4822.53" x2="6386.18" y2="4822.53" gradientUnits="userSpaceOnUse">
<stop stop-color="#FEFEFE"/>
<stop offset="0.9" stop-color="#C3C2C2"/>
</linearGradient>
<linearGradient id="paint22_linear_1_1027" x1="1544.45" y1="6115.02" x2="1544.45" y2="4593.02" gradientUnits="userSpaceOnUse">
<stop stop-color="#FEFEFE"/>
<stop offset="0.9" stop-color="#C3C2C2"/>
</linearGradient>
<linearGradient id="paint23_linear_1_1027" x1="3870.27" y1="318.23" x2="4156.29" y2="318.23" gradientUnits="userSpaceOnUse">
<stop stop-color="#E1E2E2"/>
<stop offset="0.2" stop-color="#C3C2C2"/>
<stop offset="0.9" stop-color="#B9B7B8"/>
</linearGradient>
<linearGradient id="paint24_linear_1_1027" x1="747.137" y1="317.165" x2="747.137" y2="323.557" gradientUnits="userSpaceOnUse">
<stop stop-color="#FEFEFE"/>
<stop offset="0.9" stop-color="#C3C2C2"/>
</linearGradient>
<linearGradient id="paint25_linear_1_1027" x1="3870.27" y1="169.439" x2="4156.29" y2="169.439" gradientUnits="userSpaceOnUse">
<stop stop-color="#E1E2E2"/>
<stop offset="0.2" stop-color="#C3C2C2"/>
<stop offset="0.9" stop-color="#B9B7B8"/>
</linearGradient>
<linearGradient id="paint26_linear_1_1027" x1="3930.11" y1="324.253" x2="4225.39" y2="324.253" gradientUnits="userSpaceOnUse">
<stop stop-color="#E1E2E2"/>
<stop offset="0.2" stop-color="#C3C2C2"/>
<stop offset="0.9" stop-color="#B9B7B8"/>
</linearGradient>
<linearGradient id="paint27_linear_1_1027" x1="731.024" y1="323.188" x2="731.024" y2="330.645" gradientUnits="userSpaceOnUse">
<stop stop-color="#FEFEFE"/>
<stop offset="0.9" stop-color="#C3C2C2"/>
</linearGradient>
<linearGradient id="paint28_linear_1_1027" x1="3921.27" y1="157.132" x2="4215.89" y2="157.132" gradientUnits="userSpaceOnUse">
<stop stop-color="#E1E2E2"/>
<stop offset="0.2" stop-color="#C3C2C2"/>
<stop offset="0.9" stop-color="#B9B7B8"/>
</linearGradient>
<linearGradient id="paint29_linear_1_1027" x1="5958.3" y1="534.189" x2="6668.43" y2="534.189" gradientUnits="userSpaceOnUse">
<stop stop-color="#E1E2E2"/>
<stop offset="0.2" stop-color="#C3C2C2"/>
<stop offset="0.9" stop-color="#B9B7B8"/>
</linearGradient>
<linearGradient id="paint30_linear_1_1027" x1="2271.32" y1="1527.55" x2="2273.23" y2="1426.52" gradientUnits="userSpaceOnUse">
<stop offset="0.1" stop-color="#FEFEFE"/>
<stop offset="0.7" stop-color="#FEFEFE"/>
</linearGradient>
</defs>
</svg>
