<svg width="38" height="38" viewBox="0 0 38 38" fill="none" xmlns="http://www.w3.org/2000/svg">
<path d="M24.7984 30.944H20.3075H16.7364H12.2455L15.3026 27.2512L15.519 26.886L18.522 26.913L21.5249 26.886L21.6602 27.2512L24.7984 30.944Z" fill="url(#paint0_linear_1_1074)"/>
<g style="mix-blend-mode:multiply" opacity="0.5">
<path d="M19.4551 26.913L21.5247 26.886L21.66 27.2512L24.7982 30.944H20.4155C20.4516 30.8989 20.4832 30.8493 20.5102 30.7952C20.7402 30.3353 20.7131 29.8078 20.5914 29.3343C20.3885 28.4551 19.9015 27.6841 19.4551 26.913Z" fill="#D0D0D1"/>
</g>
<path style="mix-blend-mode:screen" opacity="0.5" d="M20.5104 30.9173H12.2591C12.2591 30.9173 12.2636 30.9128 12.2726 30.9038C12.2997 30.8767 12.3132 30.8632 12.3403 30.8361C12.3403 30.8226 12.3673 30.7956 12.3673 30.7956C13.1654 29.8487 14.2475 28.4419 15.3432 27.2245C15.7219 26.8052 17.6157 26.8728 18.1432 26.954C18.1568 26.954 19.6988 27.0622 19.9829 30.3627C19.9964 30.6197 20.321 30.7685 20.5104 30.9173Z" fill="url(#paint1_linear_1_1074)"/>
<path style="mix-blend-mode:screen" opacity="0.5" d="M14.8833 30.917H12.5837C12.9084 30.6194 15.7625 27.4677 16.0601 26.9402C16.4659 26.8861 16.8852 26.9537 17.291 26.9672C17.0205 27.5624 15.005 30.7547 14.8833 30.917Z" fill="url(#paint2_linear_1_1074)"/>
<path d="M24.7983 30.9171L23.3239 33.4872H20.5238H16.5199H13.7199L12.2319 30.9171H18.5219H24.7983Z" fill="url(#paint3_linear_1_1074)"/>
<path d="M22.2824 26.7509H14.7615C17.3451 21.8271 16.9664 16.7411 16.9664 16.7411L18.522 16.944L20.0775 16.7411C20.0775 16.7411 19.6988 21.8271 22.2824 26.7509Z" fill="url(#paint4_linear_1_1074)"/>
<g style="mix-blend-mode:multiply" opacity="0.5">
<path d="M22.2823 26.7509H20.4698C19.9963 25.8446 19.6176 24.8842 19.3606 23.8967C19.0495 22.7064 18.9007 21.1102 18.8601 19.8928C18.806 17.9855 18.7519 17.3498 18.8736 16.8358C18.8871 16.7817 19.8881 16.8087 19.9016 16.7681L20.0775 16.7411C20.0775 16.7411 19.6987 21.8271 22.2823 26.7509Z" fill="#D0D0D1"/>
</g>
<path style="mix-blend-mode:screen" opacity="0.5" d="M20.4428 26.7509H14.7615C15.7355 24.8842 16.2901 22.9905 16.6012 21.3673C16.7364 20.6368 17.034 18.5267 16.9934 17.458C16.9799 16.687 18.6437 16.0783 18.8466 17.2957C18.9548 17.9315 18.9278 20.204 19.0225 20.8533C19.2118 22.1789 18.7519 23.5316 19.1712 24.8166C19.4147 25.547 19.8205 26.264 20.4428 26.7509Z" fill="url(#paint5_linear_1_1074)"/>
<path style="mix-blend-mode:screen" opacity="0.5" d="M17.2773 26.751H15.4918C17.6966 21.5973 17.3043 17.7828 17.3449 17.2552C17.372 16.9441 17.5343 17.0929 17.4802 16.7683C17.5884 16.7142 17.6966 16.6736 17.8184 16.6465C17.8454 16.9712 17.6966 21.2051 17.6425 22.2466C17.5478 23.7481 17.372 25.2496 17.2773 26.751Z" fill="url(#paint6_linear_1_1074)"/>
<path d="M22.2689 26.7507L21.6602 27.2512H15.3026L14.7615 26.7507H22.2689Z" fill="url(#paint7_linear_1_1074)"/>
<path d="M23.8783 34.3122L13.1787 34.3393C13.1651 34.2852 13.1516 34.1499 13.1516 34.0958C13.1516 33.7441 13.4221 33.46 13.7603 33.46H23.2696C23.6078 33.46 23.8918 33.7441 23.8918 34.0958C23.8918 34.1499 23.8918 34.2716 23.8783 34.3122Z" fill="url(#paint8_linear_1_1074)"/>
<g style="mix-blend-mode:multiply" opacity="0.5">
<path d="M23.8918 34.0959C23.8918 34.15 23.8918 34.2718 23.8783 34.3123L13.1787 34.3394C13.1651 34.2853 13.1516 34.15 13.1516 34.0959C13.1516 34.0598 13.1561 34.0283 13.1651 34.0012H23.8783C23.8783 34.0283 23.8828 34.0598 23.8918 34.0959Z" fill="#B9B8B9"/>
</g>
<path d="M25.8533 36.8823H11.1768C11.1768 36.8823 11.1768 36.8778 11.1768 36.8688C11.1768 35.4349 12.0831 34.2581 13.1923 34.2581H23.8378C24.9606 34.2581 25.8533 35.4349 25.8533 36.8688C25.8533 36.8778 25.8533 36.8823 25.8533 36.8823Z" fill="url(#paint9_linear_1_1074)"/>
<g style="mix-blend-mode:multiply" opacity="0.5">
<path d="M25.8533 36.8688C25.8533 36.8778 25.8533 36.8823 25.8533 36.8823H11.1768C14.5856 36.6388 17.9537 35.3132 18.8059 34.9074C19.1035 34.7721 19.5093 34.5557 19.7798 34.2581H23.8378C24.9606 34.2581 25.8533 35.4349 25.8533 36.8688Z" fill="#D0D0D1"/>
</g>
<path style="mix-blend-mode:screen" opacity="0.5" d="M18.1702 36.8825H11.1769C11.1634 36.0303 11.5151 35.1917 12.1102 34.6777C12.2996 34.5018 12.489 34.4071 12.6919 34.3395C13.1112 34.2042 13.5711 34.2854 13.9905 34.2854C14.4233 34.2854 14.8426 34.2854 15.262 34.4071C16.1683 34.6641 16.6011 35.5839 17.2098 36.2197C17.4939 36.5173 17.8185 36.7337 18.1702 36.8825Z" fill="url(#paint10_linear_1_1074)"/>
<path d="M20.4562 6.13622C20.4562 6.50144 19.5905 6.78551 18.5219 6.78551C17.4533 6.78551 16.5876 6.50144 16.5876 6.13622C16.5876 5.771 17.4533 5.48694 18.5219 5.48694C19.5905 5.48694 20.4562 5.771 20.4562 6.13622Z" fill="url(#paint11_linear_1_1074)"/>
<path style="mix-blend-mode:screen" opacity="0.5" d="M17.6831 6.74491C17.372 6.70433 17.0879 6.63669 16.8715 6.55553C16.8715 6.40674 16.8986 6.25795 16.9392 6.10915C17.0203 5.85214 17.1826 5.70335 17.3855 5.56808C17.5028 5.55005 17.6245 5.53201 17.7508 5.51398C17.602 5.75746 17.5343 6.05504 17.5479 6.3391C17.5479 6.50143 17.602 6.63669 17.6831 6.74491Z" fill="url(#paint12_linear_1_1074)"/>
<g style="mix-blend-mode:multiply" opacity="0.3">
<path d="M18.5083 5.79805C17.859 5.79805 17.2774 5.83863 16.9798 5.74395C17.345 5.58162 17.8996 5.48694 18.5218 5.48694C19.1305 5.48694 19.6716 5.58162 20.0233 5.73042C19.7528 5.83863 19.1847 5.79805 18.5083 5.79805Z" fill="#B9B8B9"/>
</g>
<g style="mix-blend-mode:multiply" opacity="0.5">
<path d="M20.4562 6.13619C20.4562 6.50141 19.5905 6.78547 18.5219 6.78547C17.4533 6.78547 16.5876 6.50141 16.5876 6.13619C16.5876 6.02797 16.6687 5.93329 16.804 5.8386C16.547 6.10914 17.7103 6.00092 18.4949 6.00092C19.3065 6.00092 20.4021 6.10913 20.2263 5.82507C20.3615 5.91976 20.4562 6.02797 20.4562 6.13619Z" fill="#B9B8B9"/>
</g>
<path d="M19.9016 4.08003L19.1712 3.6066L19.6581 5.12159H17.3856L17.8591 3.6066L17.1422 4.08003V2.19982L17.9943 2.48388L17.6156 1.11768H18.2784H18.7654H19.4146L19.0359 2.48388L19.9016 2.19982V4.08003Z" fill="url(#paint13_linear_1_1074)"/>
<path style="mix-blend-mode:screen" opacity="0.5" d="M17.1422 2.19981L17.9943 2.48388L17.6156 1.11768H19.3064C19.2523 1.60464 19.1576 2.07807 18.9547 2.51093C18.7383 2.97084 18.3731 3.32253 17.8591 3.32253C17.4938 3.32253 17.2774 3.16021 17.1422 2.93026V2.19981Z" fill="url(#paint14_linear_1_1074)"/>
<g style="mix-blend-mode:multiply" opacity="0.5">
<path d="M19.9016 4.07971L19.1711 3.60628L19.6581 5.12127H17.3856L17.575 4.5261C17.584 4.5261 17.5885 4.5306 17.5885 4.53962C17.7779 4.85074 18.1025 4.55315 18.2108 4.35025C18.4137 3.94445 18.5083 3.49806 18.5489 3.03815C18.5579 3.03815 18.567 3.03815 18.576 3.03815C19.0088 2.98405 19.4552 2.98405 19.9016 2.97052V4.07971Z" fill="#B9B8B9"/>
</g>
<path style="mix-blend-mode:screen" opacity="0.5" d="M17.1422 2.19982L17.9943 2.48388L17.6156 1.11768C17.6156 1.11768 18.4948 2.59209 18.2243 2.7003C17.9808 2.80852 17.1422 2.19982 17.1422 2.19982Z" fill="url(#paint15_linear_1_1074)"/>
<path d="M19.9014 4.08003L19.171 3.6066L19.658 5.12159H18.5488V1.11768H19.4145L19.0357 2.48388L19.9014 2.19982V4.08003Z" fill="url(#paint16_linear_1_1074)"/>
<path style="mix-blend-mode:screen" opacity="0.5" d="M18.5488 3.052V1.11768H19.4145L19.0357 2.48388L19.9014 2.19982V3.09258C19.6444 3.28195 19.3468 3.37664 19.0222 3.32254C18.7922 3.28196 18.657 3.22785 18.5488 3.052Z" fill="url(#paint17_linear_1_1074)"/>
<g style="mix-blend-mode:multiply" opacity="0.5">
<path d="M19.658 5.12159H18.5488V3.16022C18.5488 3.17374 18.5623 3.18727 18.5623 3.18727C18.6299 4.40468 19.1169 4.83753 19.4821 4.59405L19.658 5.12159Z" fill="#B9B8B9"/>
</g>
<path style="mix-blend-mode:screen" opacity="0.5" d="M19.0358 2.48388L19.9015 2.19981C19.9015 2.19981 19.1169 2.65973 18.8464 2.74089C18.4812 2.8491 19.4145 1.11768 19.4145 1.11768L19.0358 2.48388Z" fill="url(#paint18_linear_1_1074)"/>
<path d="M19.7935 5.67619H17.2505C17.0341 5.67619 16.8582 5.48682 16.8582 5.27039C16.8582 5.05396 17.0341 4.87811 17.2505 4.87811H19.7935C20.0099 4.87811 20.1858 5.05396 20.1858 5.27039C20.1858 5.48682 20.0099 5.67619 19.7935 5.67619Z" fill="url(#paint19_linear_1_1074)"/>
<path style="mix-blend-mode:screen" opacity="0.5" d="M17.8321 5.67619H17.3316C17.2955 5.64914 17.264 5.61758 17.2369 5.5815C17.034 5.36508 17.1557 4.99985 17.3992 4.87811H17.8997C17.7509 4.9728 17.6427 5.12159 17.6698 5.32449C17.6698 5.45976 17.7374 5.5815 17.8321 5.67619Z" fill="url(#paint20_linear_1_1074)"/>
<g style="mix-blend-mode:multiply" opacity="0.5">
<g style="mix-blend-mode:multiply">
<path d="M20.1587 5.14856C20.1768 5.19365 20.1858 5.23423 20.1858 5.2703C20.1858 5.48673 20.0099 5.6761 19.7935 5.6761H17.2505C17.0341 5.6761 16.8582 5.48673 16.8582 5.2703C16.8582 5.23423 16.8627 5.19365 16.8717 5.14856C16.9258 5.31088 17.0746 5.43262 17.2505 5.43262H19.7935C19.9694 5.43262 20.1182 5.31088 20.1587 5.14856Z" fill="#B9B8B9"/>
</g>
</g>
<path d="M20.4698 17.4715H16.5741C16.2765 17.4715 16.033 17.228 16.033 16.9304C16.033 16.6328 16.2765 16.3758 16.5741 16.3758H20.4698C20.7674 16.3758 21.0109 16.6328 21.0109 16.9304C21.0109 17.228 20.7674 17.4715 20.4698 17.4715Z" fill="url(#paint21_linear_1_1074)"/>
<path style="mix-blend-mode:screen" opacity="0.5" d="M17.3044 17.4715H16.574C16.5063 17.4715 15.9788 16.7816 16.6551 16.3758H17.2638C17.0609 16.5652 16.9527 16.7275 16.9933 17.0386C17.0068 17.2009 17.1556 17.4309 17.3044 17.4715Z" fill="url(#paint22_linear_1_1074)"/>
<g style="mix-blend-mode:multiply" opacity="0.5">
<path d="M16.087 16.6734C16.1817 16.4975 16.3576 16.3758 16.574 16.3758H20.4697C20.6726 16.3758 20.862 16.4975 20.9431 16.6734H16.087Z" fill="#B9B8B9"/>
</g>
<g style="mix-blend-mode:multiply" opacity="0.5">
<path d="M20.9701 17.1198C20.9025 17.3227 20.6995 17.4715 20.4696 17.4715H16.5739C16.3304 17.4715 16.141 17.3227 16.0599 17.1198H20.9701Z" fill="#B9B8B9"/>
</g>
<path d="M23.0128 9.2338C22.5394 10.5324 20.8485 15.1315 20.8485 15.1315H19.9152H17.1151H16.1818C16.1818 15.1315 14.491 10.5324 14.0175 9.2338C13.5441 7.92171 13.5306 6.97484 14.5856 6.56903C14.8562 6.46082 15.1402 6.39318 15.4243 6.33908C16.0195 6.21734 16.6417 6.16323 17.2504 6.10913C17.557 6.08207 17.8591 6.06854 18.1567 6.06854C19.0901 6.04149 20.0234 6.10913 20.9432 6.23087C21.4437 6.2985 21.9712 6.37966 22.4582 6.56903C23.5133 6.97484 23.4862 7.92171 23.0128 9.2338Z" fill="url(#paint23_linear_1_1074)"/>
<g style="mix-blend-mode:multiply" opacity="0.5">
<path d="M23.0126 9.23369C22.5392 10.5323 20.8483 15.1313 20.8483 15.1313H18.8734C18.9816 14.6534 19.0898 14.1755 19.1981 13.6975C19.4956 12.3178 19.8879 10.9651 20.1855 9.59891C20.5643 7.81338 20.5643 7.19115 20.1314 6.55539C20.0232 6.39307 19.9285 6.23075 19.7797 6.10901C20.1675 6.13606 20.5552 6.17664 20.943 6.23075C21.4435 6.29838 21.971 6.37954 22.458 6.56892C23.5131 6.97472 23.486 7.92159 23.0126 9.23369Z" fill="#D0D0D1"/>
</g>
<path style="mix-blend-mode:screen" opacity="0.5" d="M13.7875 8.48983C13.4899 7.36711 13.9769 6.79899 14.5856 6.56903C14.8561 6.46082 15.1402 6.39318 15.4243 6.33908C16.0194 6.21734 16.6417 6.16323 17.2504 6.10913C17.557 6.08207 17.8591 6.06854 18.1567 6.06854C19.09 6.04149 20.0234 6.10913 20.9432 6.23087C21.1235 6.25792 21.3039 6.28497 21.4842 6.31203C21.863 6.37966 21.7954 7.09658 21.7818 7.32653C21.7142 8.16519 21.5925 8.99032 21.3625 9.80192C20.9432 11.2358 20.9432 14.7933 19.4011 15.2532C18.9412 15.3885 16.3306 15.5373 16.1818 15.1179C15.4243 12.9401 14.2745 10.3024 13.7875 8.48983Z" fill="url(#paint24_linear_1_1074)"/>
<path style="mix-blend-mode:screen" opacity="0.5" d="M16.0195 6.24425C16.4253 6.17662 16.8446 6.13604 17.2504 6.10899C17.3677 6.09997 17.4804 6.09546 17.5886 6.09546C16.9393 6.27131 16.6553 6.66358 16.6417 7.51577C16.6282 8.16505 16.777 9.17956 16.8446 9.81531C16.9168 10.4826 16.9934 11.15 17.0746 11.8173C17.2099 13.0076 17.3587 14.198 17.4939 15.3883C17.0611 15.3883 16.6553 15.3478 16.4118 15.2801C16.2089 14.7661 15.0862 9.78826 14.9238 9.03076C14.7345 8.19211 14.7074 7.42108 15.262 6.71769C15.4649 6.47421 15.7084 6.28483 16.0195 6.24425Z" fill="url(#paint25_linear_1_1074)"/>
<path d="M20.7673 16.3893H16.2359C15.8842 16.3893 15.6136 16.1052 15.6136 15.7536C15.6136 15.4019 15.8842 15.1178 16.2359 15.1178H20.7673C21.119 15.1178 21.4031 15.4019 21.4031 15.7536C21.4031 16.1052 21.119 16.3893 20.7673 16.3893Z" fill="url(#paint26_linear_1_1074)"/>
<path style="mix-blend-mode:screen" opacity="0.5" d="M17.3587 16.3893H16.3983C16.3307 16.3893 16.2089 16.2405 16.1683 16.1999C16.1142 16.1323 16.0737 16.0376 16.0466 15.9565C15.979 15.7671 15.979 15.5642 16.0872 15.3883C16.1278 15.3072 16.2901 15.1178 16.3983 15.1178C16.4118 15.1178 17.3452 15.1178 17.3452 15.1178C17.1017 15.3342 17.0205 15.6994 17.1017 16.0241C17.1287 16.1999 17.237 16.3082 17.3587 16.3893Z" fill="url(#paint27_linear_1_1074)"/>
<g style="mix-blend-mode:multiply" opacity="0.5">
<path d="M21.3489 16.0107C21.2542 16.2271 21.0242 16.3894 20.7672 16.3894H16.2358C15.9788 16.3894 15.7488 16.2271 15.6541 16.0107H21.3489Z" fill="#B9B8B9"/>
</g>
<g style="mix-blend-mode:screen" opacity="0.5">
<path d="M16.1547 34.2178C15.5324 34.8401 15.4107 36.0169 15.3972 36.842H12.543C12.6918 35.5299 13.7063 34.4072 14.4503 34.2178H16.1547Z" fill="url(#paint28_linear_1_1074)"/>
</g>
<defs>
<linearGradient id="paint0_linear_1_1074" x1="5501.59" y1="1799.02" x2="6277.36" y2="1799.02" gradientUnits="userSpaceOnUse">
<stop stop-color="#E1E2E2"/>
<stop offset="0.4" stop-color="#C3C2C2"/>
<stop offset="0.9" stop-color="#B9B7B8"/>
</linearGradient>
<linearGradient id="paint1_linear_1_1074" x1="3645.31" y1="1784.59" x2="4339.25" y2="1784.59" gradientUnits="userSpaceOnUse">
<stop stop-color="#FEFEFE"/>
<stop offset="0.7" stop-color="#C3C2C2"/>
<stop offset="0.9" stop-color="#B9B7B8"/>
</linearGradient>
<linearGradient id="paint2_linear_1_1074" x1="2077.68" y1="1885.78" x2="2107.58" y2="1720.67" gradientUnits="userSpaceOnUse">
<stop stop-color="#FEFEFE"/>
<stop offset="0.7" stop-color="#C3C2C2"/>
<stop offset="0.9" stop-color="#B9B7B8"/>
</linearGradient>
<linearGradient id="paint3_linear_1_1074" x1="5276.27" y1="1229.86" x2="6727.69" y2="1229.86" gradientUnits="userSpaceOnUse">
<stop stop-color="#E7E8E8"/>
<stop offset="0.9" stop-color="#AEAEAE"/>
</linearGradient>
<linearGradient id="paint4_linear_1_1074" x1="3369.82" y1="3637.28" x2="3722.55" y2="3637.28" gradientUnits="userSpaceOnUse">
<stop stop-color="#E1E2E2"/>
<stop offset="0.4" stop-color="#C3C2C2"/>
<stop offset="0.9" stop-color="#B9B7B8"/>
</linearGradient>
<linearGradient id="paint5_linear_1_1074" x1="2606.54" y1="3676.4" x2="2845.15" y2="3676.4" gradientUnits="userSpaceOnUse">
<stop offset="0.2" stop-color="#FEFEFE"/>
<stop offset="0.8" stop-color="#C3C2C2"/>
<stop offset="1" stop-color="#B9B7B8"/>
</linearGradient>
<linearGradient id="paint6_linear_1_1074" x1="741.474" y1="4437.35" x2="741.474" y2="3577.46" gradientUnits="userSpaceOnUse">
<stop offset="0.2" stop-color="#FEFEFE"/>
<stop offset="0.8" stop-color="#C3C2C2"/>
<stop offset="1" stop-color="#B9B7B8"/>
</linearGradient>
<linearGradient id="paint7_linear_1_1074" x1="3308.98" y1="244.813" x2="3736.15" y2="244.813" gradientUnits="userSpaceOnUse">
<stop stop-color="#E7E8E8"/>
<stop offset="0.9" stop-color="#AEAEAE"/>
</linearGradient>
<linearGradient id="paint8_linear_1_1074" x1="4490.76" y1="460.154" x2="5337.09" y2="460.154" gradientUnits="userSpaceOnUse">
<stop stop-color="#E7E8E8"/>
<stop offset="0.9" stop-color="#AEAEAE"/>
</linearGradient>
<linearGradient id="paint9_linear_1_1074" x1="6121.01" y1="1323.26" x2="7626.82" y2="1323.26" gradientUnits="userSpaceOnUse">
<stop stop-color="#E7E8E8"/>
<stop offset="0.9" stop-color="#AEAEAE"/>
</linearGradient>
<linearGradient id="paint10_linear_1_1074" x1="3016.37" y1="1321.84" x2="3377.94" y2="1321.84" gradientUnits="userSpaceOnUse">
<stop stop-color="#FEFEFE"/>
<stop offset="0.6" stop-color="#C3C2C2"/>
<stop offset="0.9" stop-color="#B9B7B8"/>
</linearGradient>
<linearGradient id="paint11_linear_1_1074" x1="1895.2" y1="359.606" x2="1895.2" y2="379.864" gradientUnits="userSpaceOnUse">
<stop stop-color="#B9B7B8"/>
<stop offset="0.2" stop-color="#E1E2E2"/>
<stop offset="0.6" stop-color="#C3C2C2"/>
<stop offset="1" stop-color="#B9B7B8"/>
</linearGradient>
<linearGradient id="paint12_linear_1_1074" x1="440.137" y1="341.189" x2="440.137" y2="360.391" gradientUnits="userSpaceOnUse">
<stop stop-color="#FEFEFE"/>
<stop offset="0.9" stop-color="#C3C2C2"/>
</linearGradient>
<linearGradient id="paint13_linear_1_1074" x1="1324.3" y1="986.881" x2="1357.41" y2="986.881" gradientUnits="userSpaceOnUse">
<stop stop-color="#E1E2E2"/>
<stop offset="0.4" stop-color="#C3C2C2"/>
<stop offset="0.9" stop-color="#B9B7B8"/>
</linearGradient>
<linearGradient id="paint14_linear_1_1074" x1="978.515" y1="622.447" x2="1121.14" y2="624.359" gradientUnits="userSpaceOnUse">
<stop stop-color="#FEFEFE"/>
<stop offset="0.8" stop-color="#C3C2C2"/>
</linearGradient>
<linearGradient id="paint15_linear_1_1074" x1="556.17" y1="419.782" x2="542.879" y2="409.225" gradientUnits="userSpaceOnUse">
<stop stop-color="#FEFEFE"/>
<stop offset="0.6" stop-color="#C3C2C2"/>
</linearGradient>
<linearGradient id="paint16_linear_1_1074" x1="688.664" y1="1105.4" x2="671.891" y2="1105.4" gradientUnits="userSpaceOnUse">
<stop stop-color="#E1E2E2"/>
<stop offset="0.4" stop-color="#C3C2C2"/>
<stop offset="0.9" stop-color="#B9B7B8"/>
</linearGradient>
<linearGradient id="paint17_linear_1_1074" x1="619.407" y1="626.702" x2="708.558" y2="627.444" gradientUnits="userSpaceOnUse">
<stop stop-color="#FEFEFE"/>
<stop offset="0.8" stop-color="#C3C2C2"/>
</linearGradient>
<linearGradient id="paint18_linear_1_1074" x1="565.773" y1="408.138" x2="578.981" y2="398.782" gradientUnits="userSpaceOnUse">
<stop stop-color="#FEFEFE"/>
<stop offset="0.6" stop-color="#C3C2C2"/>
</linearGradient>
<linearGradient id="paint19_linear_1_1074" x1="1629.73" y1="221.795" x2="1629.73" y2="229.218" gradientUnits="userSpaceOnUse">
<stop stop-color="#B9B7B8"/>
<stop offset="0.2" stop-color="#E1E2E2"/>
<stop offset="0.6" stop-color="#C3C2C2"/>
<stop offset="1" stop-color="#B9B7B8"/>
</linearGradient>
<linearGradient id="paint20_linear_1_1074" x1="383.689" y1="221.795" x2="383.689" y2="229.218" gradientUnits="userSpaceOnUse">
<stop stop-color="#FEFEFE"/>
<stop offset="0.9" stop-color="#C3C2C2"/>
</linearGradient>
<linearGradient id="paint21_linear_1_1074" x1="2316.29" y1="409.72" x2="2512.92" y2="409.72" gradientUnits="userSpaceOnUse">
<stop stop-color="#E7E8E8"/>
<stop offset="0.9" stop-color="#AEAEAE"/>
</linearGradient>
<linearGradient id="paint22_linear_1_1074" x1="485.416" y1="411.583" x2="485.416" y2="419.143" gradientUnits="userSpaceOnUse">
<stop stop-color="#FEFEFE"/>
<stop offset="0.9" stop-color="#C3C2C2"/>
</linearGradient>
<linearGradient id="paint23_linear_1_1074" x1="4300.08" y1="2570.73" x2="4809.79" y2="2570.73" gradientUnits="userSpaceOnUse">
<stop stop-color="#E1E2E2"/>
<stop offset="0.4" stop-color="#C3C2C2"/>
<stop offset="0.9" stop-color="#B9B7B8"/>
</linearGradient>
<linearGradient id="paint24_linear_1_1074" x1="3610.57" y1="2635.52" x2="4144.21" y2="2641.85" gradientUnits="userSpaceOnUse">
<stop stop-color="#FEFEFE"/>
<stop offset="0.8" stop-color="#C3C2C2"/>
</linearGradient>
<linearGradient id="paint25_linear_1_1074" x1="1599.72" y1="2404.59" x2="1944.22" y2="2917.93" gradientUnits="userSpaceOnUse">
<stop stop-color="#FEFEFE"/>
<stop offset="0.9" stop-color="#C3C2C2"/>
</linearGradient>
<linearGradient id="paint26_linear_1_1074" x1="2657.92" y1="459.766" x2="2923.07" y2="459.766" gradientUnits="userSpaceOnUse">
<stop stop-color="#E7E8E8"/>
<stop offset="0.9" stop-color="#AEAEAE"/>
</linearGradient>
<linearGradient id="paint27_linear_1_1074" x1="660.942" y1="459.639" x2="660.942" y2="471.464" gradientUnits="userSpaceOnUse">
<stop stop-color="#FEFEFE"/>
<stop offset="0.9" stop-color="#C3C2C2"/>
</linearGradient>
<linearGradient id="paint28_linear_1_1074" x1="1621.53" y1="1377.01" x2="1623.44" y2="1286.18" gradientUnits="userSpaceOnUse">
<stop offset="0.1" stop-color="#FEFEFE"/>
<stop offset="0.7" stop-color="#FEFEFE"/>
</linearGradient>
</defs>
</svg>
