<svg width="34" height="34" viewBox="0 0 34 34" fill="none" xmlns="http://www.w3.org/2000/svg">
<path d="M21.5821 23.1283V23.5125H18.6757H14.8005H11.8941V23.1283C11.8941 23.1283 13.7649 12.7722 14.1825 10.3168C14.6001 7.86139 12.6959 7.84469 12.6959 7.84469L12.7126 7.56073H14.8005H18.6757H20.7803V7.84469C20.7803 7.84469 18.8761 7.86139 19.2937 10.3168C19.7113 12.7722 21.5821 23.1283 21.5821 23.1283Z" fill="url(#paint0_linear_1_1124)"/>
<g style="mix-blend-mode:multiply" opacity="0.5">
<path d="M18.375 7.54401L20.7803 7.56071V7.84467C20.7803 7.84467 18.8761 7.86137 19.2937 10.3168C19.7113 12.7722 21.5821 23.1283 21.5821 23.1283V23.5124H19.444C19.3661 23.3565 19.2937 23.1951 19.2269 23.028C18.6256 21.5581 17.8238 10.6508 17.6735 9.73215C17.5565 8.9972 17.3895 7.76115 18.375 7.54401Z" fill="#D0D0D1"/>
</g>
<path style="mix-blend-mode:screen" opacity="0.5" d="M21.5821 23.1283V23.5125H18.6757H14.8005H11.8941V23.1283C11.8941 23.1283 13.7649 12.7722 14.1825 10.3168C14.6001 7.86139 12.6959 7.84469 12.6959 7.84469L12.7126 7.56073H14.8005H18.6757H20.7803V7.84469C20.7803 7.84469 18.8761 7.86139 19.2937 10.3168C19.7113 12.7722 21.5821 23.1283 21.5821 23.1283Z" fill="url(#paint1_linear_1_1124)"/>
<path d="M23.0353 6.62531L22.4339 7.20993H20.1456H13.3306H11.0422L10.4409 6.62531L16.7381 5.77344L23.0353 6.62531Z" fill="#AEAEAF"/>
<path d="M16.521 27.0703L24.6054 27.705C24.6165 27.7162 24.6277 27.7273 24.6388 27.7384L23.1355 29.0079H19.0599H14.4163H10.3407L8.8374 27.7384C8.84854 27.7273 8.86524 27.7162 8.88751 27.705L16.521 27.0703Z" fill="url(#paint2_linear_1_1124)"/>
<path style="mix-blend-mode:multiply" d="M24.0542 28.2229L23.1355 29.008H10.3407L9.422 28.2229H24.0542Z" fill="url(#paint3_linear_1_1124)"/>
<path d="M24.6053 27.7051H8.88745C11.1758 26.2519 12.011 23.5126 12.011 23.5126L16.738 23.6295L21.4651 23.5126C21.4651 23.5126 22.3003 26.2519 24.6053 27.7051Z" fill="url(#paint4_linear_1_1124)"/>
<g style="mix-blend-mode:multiply" opacity="0.5">
<path d="M19.5108 23.546L21.4651 23.5126C21.4651 23.5126 22.3003 26.2519 24.6053 27.7051H20.8972C20.8749 27.6829 20.8526 27.6494 20.8304 27.6049C20.062 26.3354 19.7279 24.9825 19.5108 23.546Z" fill="#D0D0D1"/>
</g>
<path style="mix-blend-mode:screen" opacity="0.5" d="M24.6053 27.7051H8.88745C11.1758 26.2519 12.011 23.5126 12.011 23.5126L16.738 23.6295L21.4651 23.5126C21.4651 23.5126 22.3003 26.2519 24.6053 27.7051Z" fill="url(#paint5_linear_1_1124)"/>
<path d="M24.0208 29.8431L9.47213 29.8598C9.45542 29.793 9.43872 29.6259 9.43872 29.5591C9.43872 29.1248 9.77279 28.774 10.1904 28.774H23.2858C23.7034 28.774 24.0375 29.1248 24.0375 29.5591C24.0375 29.6259 24.0375 29.7763 24.0208 29.8431Z" fill="url(#paint6_linear_1_1124)"/>
<g style="mix-blend-mode:multiply" opacity="0.5">
<path d="M24.0375 29.5592C24.0375 29.626 24.0375 29.7763 24.0208 29.8431L9.47213 29.8598C9.45542 29.793 9.43872 29.626 9.43872 29.5592C9.43872 29.5258 9.44429 29.4868 9.45542 29.4423H24.0375C24.0375 29.4868 24.0375 29.5258 24.0375 29.5592Z" fill="#B9B8B9"/>
</g>
<path d="M26.4761 33H7C7 33 7 32.9945 7 32.9833C7 31.2128 8.11913 29.7596 9.4888 29.7596H23.9873C25.357 29.7596 26.4761 31.2128 26.4761 32.9833C26.4761 32.9945 26.4761 33 26.4761 33Z" fill="url(#paint7_linear_1_1124)"/>
<g style="mix-blend-mode:multiply" opacity="0.5">
<path d="M26.4762 32.9833C26.4762 32.9945 26.4762 33 26.4762 33H12.1614C13.5144 32.8664 14.8339 32.5658 16.1034 32.1816C17.2392 31.8141 19.6779 31.029 20.7469 29.7596H23.9874C25.357 29.7596 26.4762 31.2128 26.4762 32.9833Z" fill="#D0D0D1"/>
</g>
<path d="M12.9464 4.08648L12.4954 4.57088V1.26361L12.9464 1.91504V4.08648Z" fill="url(#paint8_linear_1_1124)"/>
<path d="M13.9653 4.08655V4.57094H12.4954L12.9464 4.08655H13.9653Z" fill="url(#paint9_linear_1_1124)"/>
<path d="M16.2704 4.08644L15.8027 4.57084V1.12994L16.2704 1.78138V4.08644Z" fill="url(#paint10_linear_1_1124)"/>
<path d="M17.2392 1.78138L17.6902 1.12994V4.57084L17.2392 4.08644V1.78138Z" fill="url(#paint11_linear_1_1124)"/>
<path d="M17.2392 4.08655L17.7069 4.57094L15.7192 4.65446L16.2704 4.08655H17.2392Z" fill="url(#paint12_linear_1_1124)"/>
<path d="M20.5632 1.91504L21.0142 1.26361V4.60429L20.5632 4.08648V1.91504Z" fill="url(#paint13_linear_1_1124)"/>
<path d="M20.5631 4.08655L21.0141 4.60435H19.4941L19.4774 4.08655H20.5631Z" fill="url(#paint14_linear_1_1124)"/>
<path d="M23.0353 1.51414V6.62538H10.4409V1.51414C11.2928 0.979636 12.4954 1.26359 12.4954 1.26359V4.57086H13.9653V1.23018C14.8172 0.779194 15.8027 1.12996 15.8027 1.12996V4.57086H16.6713H16.8216H17.6735V1.12996C17.6735 1.12996 18.659 0.779194 19.5109 1.23018V4.57086H20.9808V1.26359C20.9808 1.26359 22.2001 0.979636 23.0353 1.51414Z" fill="url(#paint15_linear_1_1124)"/>
<g style="mix-blend-mode:multiply" opacity="0.5">
<path d="M23.0352 1.51414V6.62538H18.709C19.2269 6.49175 19.728 6.2579 20.1956 5.94054C21.0642 5.33922 21.3315 4.53745 21.4651 3.51855C21.582 2.75019 21.5987 1.96513 21.4985 1.19678C21.9328 1.16337 22.5508 1.19678 23.0352 1.51414Z" fill="#D0D0D1"/>
</g>
<path style="mix-blend-mode:screen" opacity="0.5" d="M23.0353 1.51414V6.62538H10.4409V1.51414C11.2928 0.979636 12.4954 1.26359 12.4954 1.26359V4.57086H13.9653V1.23018C14.8172 0.779194 15.8027 1.12996 15.8027 1.12996V4.57086H16.6713H16.8216H17.6735V1.12996C17.6735 1.12996 18.659 0.779194 19.5109 1.23018V4.57086H20.9808V1.26359C20.9808 1.26359 22.2001 0.979636 23.0353 1.51414Z" fill="url(#paint16_linear_1_1124)"/>
<path style="mix-blend-mode:screen" opacity="0.5" d="M14.5666 1.02972V6.62536H11.2928C11.2928 5.02183 11.2928 2.73347 11.2928 1.21346C11.9275 1.12994 12.4954 1.26357 12.4954 1.26357V4.57084H13.9653V1.23016C14.1658 1.12994 14.3662 1.07983 14.5666 1.02972Z" fill="url(#paint17_linear_1_1124)"/>
<path style="mix-blend-mode:screen" opacity="0.5" d="M16.0866 10.2667C15.7024 13.1731 15.2515 20.2387 14.884 23.5125H12.7794C13.3974 20.3723 14.266 13.5239 14.7504 10.7177C15.0343 9.14762 14.8506 7.87816 13.815 7.62761L14.8005 7.56079L15.1011 7.31024C15.6189 7.39376 16.4207 7.69442 16.0866 10.2667Z" fill="url(#paint18_linear_1_1124)"/>
<path style="mix-blend-mode:screen" opacity="0.5" d="M13.0967 27.7051H9.75604C11.1925 27.0369 12.4954 24.7319 12.7794 23.5292L14.8339 23.596C14.6668 24.8154 14.5666 26.6862 13.0967 27.7051Z" fill="url(#paint19_linear_1_1124)"/>
<g style="mix-blend-mode:screen" opacity="0.5">
<path d="M12.6123 29.7596C11.8607 30.5279 11.6937 31.9811 11.677 33H8.16925C8.35299 31.3798 9.58904 29.9934 10.5077 29.7596H12.6123Z" fill="url(#paint20_linear_1_1124)"/>
</g>
<path d="M22.484 7.84477H11.0088C10.8251 7.84477 10.6747 7.69444 10.6747 7.5107C10.6747 7.32697 10.8251 7.17664 11.0088 7.17664H22.484C22.6678 7.17664 22.8014 7.32697 22.8014 7.5107C22.8014 7.69444 22.6678 7.84477 22.484 7.84477Z" fill="url(#paint21_linear_1_1124)"/>
<path style="mix-blend-mode:multiply" opacity="0.5" d="M22.8014 7.47715C22.8014 7.48828 22.8014 7.49942 22.8014 7.51056C22.8014 7.69429 22.6678 7.84462 22.484 7.84462H11.0088C10.8251 7.84462 10.6747 7.69429 10.6747 7.51056C10.6747 7.49942 10.6747 7.48272 10.6747 7.46045C10.697 7.47158 10.7193 7.47715 10.7416 7.47715H22.8014Z" fill="url(#paint22_linear_1_1124)"/>
<path d="M21.6655 24.0804H11.8106C11.5099 24.0804 11.2593 23.8298 11.2593 23.5292C11.2593 23.2285 11.5099 22.978 11.8106 22.978H21.6655C21.9662 22.978 22.2168 23.2285 22.2168 23.5292C22.2168 23.8298 21.9662 24.0804 21.6655 24.0804Z" fill="url(#paint23_linear_1_1124)"/>
<path style="mix-blend-mode:multiply" opacity="0.5" d="M22.2001 23.4457C22.2001 23.4624 22.2168 23.4958 22.2168 23.5292C22.2168 23.8299 21.9662 24.0804 21.6655 24.0804H11.8106C11.5099 24.0804 11.2593 23.8299 11.2593 23.5292C11.2593 23.4958 11.2649 23.4679 11.276 23.4457H22.2001Z" fill="url(#paint24_linear_1_1124)"/>
<defs>
<linearGradient id="paint0_linear_1_1124" x1="287.032" y1="5723.07" x2="780.149" y2="5723.07" gradientUnits="userSpaceOnUse">
<stop stop-color="#E1E2E2"/>
<stop offset="0.4" stop-color="#C3C2C2"/>
<stop offset="0.9" stop-color="#B9B7B8"/>
</linearGradient>
<linearGradient id="paint1_linear_1_1124" x1="307.377" y1="5723.07" x2="864.435" y2="5723.07" gradientUnits="userSpaceOnUse">
<stop offset="0.1" stop-color="#FEFEFE"/>
<stop offset="0.7" stop-color="#C3C2C2"/>
</linearGradient>
<linearGradient id="paint2_linear_1_1124" x1="-373.556" y1="947.621" x2="817.869" y2="947.621" gradientUnits="userSpaceOnUse">
<stop stop-color="#C3C2C2"/>
<stop offset="1" stop-color="#B9B7B8"/>
</linearGradient>
<linearGradient id="paint3_linear_1_1124" x1="-344.676" y1="406.622" x2="758.589" y2="406.622" gradientUnits="userSpaceOnUse">
<stop stop-color="#C3C2C2"/>
<stop offset="1" stop-color="#B9B7B8"/>
</linearGradient>
<linearGradient id="paint4_linear_1_1124" x1="128.343" y1="1926.09" x2="1418.78" y2="1926.09" gradientUnits="userSpaceOnUse">
<stop stop-color="#E1E2E2"/>
<stop offset="0.4" stop-color="#C3C2C2"/>
<stop offset="0.9" stop-color="#B9B7B8"/>
</linearGradient>
<linearGradient id="paint5_linear_1_1124" x1="272.948" y1="1926.09" x2="1464.36" y2="1926.09" gradientUnits="userSpaceOnUse">
<stop offset="0.1" stop-color="#FEFEFE"/>
<stop offset="0.7" stop-color="#C3C2C2"/>
</linearGradient>
<linearGradient id="paint6_linear_1_1124" x1="37.1764" y1="555.674" x2="1035.73" y2="555.674" gradientUnits="userSpaceOnUse">
<stop stop-color="#E1E2E2"/>
<stop offset="0.4" stop-color="#C3C2C2"/>
<stop offset="0.9" stop-color="#B9B7B8"/>
</linearGradient>
<linearGradient id="paint7_linear_1_1124" x1="24.5285" y1="1621.47" x2="2295.45" y2="1621.47" gradientUnits="userSpaceOnUse">
<stop stop-color="#E1E2E2"/>
<stop offset="0.4" stop-color="#C3C2C2"/>
<stop offset="0.9" stop-color="#B9B7B8"/>
</linearGradient>
<linearGradient id="paint8_linear_1_1124" x1="27.7389" y1="1061.57" x2="28.9566" y2="1061.57" gradientUnits="userSpaceOnUse">
<stop offset="0.1" stop-color="#B9B7B8"/>
<stop offset="0.6" stop-color="#C3C2C2"/>
<stop offset="1" stop-color="#E1E2E2"/>
</linearGradient>
<linearGradient id="paint9_linear_1_1124" x1="69.3805" y1="167.28" x2="69.3805" y2="168.975" gradientUnits="userSpaceOnUse">
<stop stop-color="#E1E2E2"/>
<stop offset="0.4" stop-color="#C3C2C2"/>
<stop offset="0.9" stop-color="#B9B7B8"/>
</linearGradient>
<linearGradient id="paint10_linear_1_1124" x1="40.8711" y1="1101.53" x2="42.1807" y2="1101.53" gradientUnits="userSpaceOnUse">
<stop offset="0.1" stop-color="#B9B7B8"/>
<stop offset="0.6" stop-color="#C3C2C2"/>
<stop offset="1" stop-color="#E1E2E2"/>
</linearGradient>
<linearGradient id="paint11_linear_1_1124" x1="45.2909" y1="1101.53" x2="46.5085" y2="1101.53" gradientUnits="userSpaceOnUse">
<stop stop-color="#E1E2E2"/>
<stop offset="0.4" stop-color="#C3C2C2"/>
<stop offset="0.9" stop-color="#B9B7B8"/>
</linearGradient>
<linearGradient id="paint12_linear_1_1124" x1="133.987" y1="195.36" x2="133.987" y2="197.688" gradientUnits="userSpaceOnUse">
<stop stop-color="#E1E2E2"/>
<stop offset="0.4" stop-color="#C3C2C2"/>
<stop offset="0.9" stop-color="#B9B7B8"/>
</linearGradient>
<linearGradient id="paint13_linear_1_1124" x1="57.5896" y1="1072.28" x2="58.8073" y2="1072.28" gradientUnits="userSpaceOnUse">
<stop stop-color="#E1E2E2"/>
<stop offset="0.4" stop-color="#C3C2C2"/>
<stop offset="0.9" stop-color="#B9B7B8"/>
</linearGradient>
<linearGradient id="paint14_linear_1_1124" x1="143.644" y1="178.484" x2="143.644" y2="180.451" gradientUnits="userSpaceOnUse">
<stop stop-color="#E1E2E2"/>
<stop offset="0.4" stop-color="#C3C2C2"/>
<stop offset="0.9" stop-color="#B9B7B8"/>
</linearGradient>
<linearGradient id="paint15_linear_1_1124" x1="75.9315" y1="1795.5" x2="1111.19" y2="1795.5" gradientUnits="userSpaceOnUse">
<stop stop-color="#E1E2E2"/>
<stop offset="0.2" stop-color="#C3C2C2"/>
<stop offset="0.7" stop-color="#B9B7B8"/>
</linearGradient>
<linearGradient id="paint16_linear_1_1124" x1="753.507" y1="2053.7" x2="664.079" y2="1751.52" gradientUnits="userSpaceOnUse">
<stop offset="0.1" stop-color="#C3C2C2"/>
<stop offset="0.9" stop-color="#FEFEFE"/>
</linearGradient>
<linearGradient id="paint17_linear_1_1124" x1="37.1563" y1="1976.29" x2="37.1563" y2="1788.83" gradientUnits="userSpaceOnUse">
<stop offset="0.1" stop-color="#FEFEFE"/>
<stop offset="0.9" stop-color="#FEFEFE"/>
</linearGradient>
<linearGradient id="paint18_linear_1_1124" x1="-509.041" y1="7405.27" x2="-509.041" y2="5699.17" gradientUnits="userSpaceOnUse">
<stop offset="0.1" stop-color="#FEFEFE"/>
<stop offset="0.9" stop-color="#FEFEFE"/>
</linearGradient>
<linearGradient id="paint19_linear_1_1124" x1="122.992" y1="2025.01" x2="122.992" y2="1920.2" gradientUnits="userSpaceOnUse">
<stop offset="0.1" stop-color="#FEFEFE"/>
<stop offset="0.7" stop-color="#FEFEFE"/>
</linearGradient>
<linearGradient id="paint20_linear_1_1124" x1="68.5954" y1="1688.87" x2="70.7231" y2="1577.04" gradientUnits="userSpaceOnUse">
<stop offset="0.1" stop-color="#FEFEFE"/>
<stop offset="0.7" stop-color="#FEFEFE"/>
</linearGradient>
<linearGradient id="paint21_linear_1_1124" x1="133.154" y1="245.033" x2="1049.93" y2="245.033" gradientUnits="userSpaceOnUse">
<stop stop-color="#E1E2E2"/>
<stop offset="0.2" stop-color="#C3C2C2"/>
<stop offset="0.9" stop-color="#B9B7B8"/>
</linearGradient>
<linearGradient id="paint22_linear_1_1124" x1="133.154" y1="144.88" x2="1049.93" y2="144.88" gradientUnits="userSpaceOnUse">
<stop stop-color="#E1E2E2"/>
<stop offset="0.2" stop-color="#C3C2C2"/>
<stop offset="0.9" stop-color="#B9B7B8"/>
</linearGradient>
<linearGradient id="paint23_linear_1_1124" x1="663.226" y1="517.415" x2="663.226" y2="527.117" gradientUnits="userSpaceOnUse">
<stop stop-color="#E1E2E2"/>
<stop offset="0.4" stop-color="#C3C2C2"/>
<stop offset="0.9" stop-color="#B9B7B8"/>
</linearGradient>
<linearGradient id="paint24_linear_1_1124" x1="661.034" y1="308.059" x2="661.034" y2="313.708" gradientUnits="userSpaceOnUse">
<stop stop-color="#E1E2E2"/>
<stop offset="0.4" stop-color="#C3C2C2"/>
<stop offset="0.9" stop-color="#B9B7B8"/>
</linearGradient>
</defs>
</svg>
