<svg width="28" height="32" viewBox="0 0 28 32" fill="none" xmlns="http://www.w3.org/2000/svg">
<g filter="url(#filter0_f_1_1322)">
<ellipse cx="13.5883" cy="27.1764" rx="9.47059" ry="0.823529" fill="black"/>
</g>
<path d="M17.1925 6.86585C17.2411 7.63023 15.2634 10.0204 15.2634 10.0204H11.9147C11.9147 10.0204 9.93697 7.63023 9.9855 6.86585C10.0098 6.45332 10.5922 4.99736 11.126 3.72339C11.4657 4.33004 12.4121 5.94374 12.4364 5.9316C12.4728 5.91947 12.8732 5.50695 12.8489 5.47055C12.8246 5.44628 11.9753 3.80832 11.49 2.86195C11.7691 2.20676 11.9875 1.72144 12.036 1.6365C12.1452 1.40598 12.4 1.38171 12.4 1.38171H14.7659C14.7659 1.38171 15.0207 1.40598 15.142 1.6365C15.2634 1.87917 17.1319 6.1136 17.1925 6.86585Z" fill="url(#paint0_linear_1_1322)"/>
<path d="M11.126 3.72331C11.49 4.35423 12.3757 5.88299 12.4363 5.93153C12.4363 5.94366 12.0845 5.93153 11.8782 5.67674C11.7326 5.49474 11.6841 5.39768 11.587 5.19141C11.3808 4.74249 11.2352 4.1965 11.126 3.72331Z" fill="black"/>
<path d="M17.1925 6.86585C17.241 7.63023 15.2633 10.0204 15.2633 10.0204H11.9146C11.9146 10.0204 11.8054 9.88698 11.6356 9.68071C11.8216 9.72925 12.0157 9.76564 12.2179 9.78991C14.3048 10.0083 15.9792 7.86075 15.7487 5.90733C15.6152 4.87603 15.1663 3.84472 14.6324 2.97114C14.3048 2.41302 13.8559 1.83064 13.3221 1.38171H14.7659C14.7659 1.38171 15.0207 1.40598 15.142 1.6365C15.2633 1.87917 17.1318 6.1136 17.1925 6.86585Z" fill="black"/>
<path d="M12.3878 4.59697C12.1816 4.19658 11.9389 3.72339 11.7205 3.29873C11.9025 2.63142 12.0966 1.97623 12.2786 1.40598C12.3514 1.38172 12.4 1.38171 12.4 1.38171H13.1037C12.8489 2.21889 12.5698 3.33513 12.3878 4.59697Z" fill="url(#paint1_linear_1_1322)"/>
<path d="M13.14 10.0204H12.6911C11.9025 9.32884 11.1624 8.29753 11.0532 6.7445C11.0168 6.23491 11.1988 5.30067 11.4535 4.29362C11.7326 4.76681 12.0723 5.3492 12.2665 5.67679C12.2503 5.91945 12.2341 6.1702 12.2179 6.42904C12.1451 8.54018 12.5941 9.51083 13.14 10.0204Z" fill="url(#paint2_linear_1_1322)"/>
<path d="M15.045 1.64862H12.133C11.9025 1.64862 11.7205 1.45449 11.7205 1.2361C11.7205 1.00557 11.9025 0.823578 12.133 0.823578H15.045C15.2634 0.823578 15.4575 1.00557 15.4575 1.2361C15.4575 1.45449 15.2634 1.64862 15.045 1.64862Z" fill="url(#paint3_linear_1_1322)"/>
<path d="M13.1037 1.64862H12.133C12.1169 1.64862 12.1007 1.64457 12.0845 1.63649C11.9753 1.36956 11.9874 1.02984 12.1816 0.823578H13.043C12.9581 0.957041 12.9338 1.1633 12.9581 1.3089C12.9824 1.43023 13.0309 1.54347 13.1037 1.64862Z" fill="url(#paint4_linear_1_1322)"/>
<path style="mix-blend-mode:multiply" opacity="0.5" d="M15.4211 1.39377C15.3604 1.53936 15.2148 1.64857 15.045 1.64857H12.133C11.9632 1.64857 11.8176 1.53936 11.7569 1.39377C11.7812 1.39377 11.8054 1.39377 11.8297 1.39377H15.4211Z" fill="url(#paint5_linear_1_1322)"/>
<path d="M15.324 10.7363H11.9147C11.6841 10.7363 11.5021 10.5543 11.5021 10.3238C11.5021 10.0933 11.6841 9.91125 11.9147 9.91125H15.324C15.5546 9.91125 15.7366 10.0933 15.7366 10.3238C15.7366 10.5543 15.5546 10.7363 15.324 10.7363Z" fill="#1C1C1C"/>
<path d="M12.8974 10.7363H12.3635C12.2907 10.6797 12.222 10.615 12.1573 10.5422C12.0602 10.4208 11.9874 10.2631 12.0723 10.1175C12.133 10.0083 12.2301 9.94765 12.3393 9.91125H12.8853C12.7639 10.0447 12.7033 10.2388 12.7397 10.4208C12.7639 10.5422 12.8125 10.6514 12.8974 10.7363Z" fill="url(#paint6_linear_1_1322)"/>
<path style="mix-blend-mode:multiply" d="M15.7366 10.2631C15.7366 10.2874 15.7366 10.3076 15.7366 10.3238C15.7366 10.5543 15.5546 10.7363 15.324 10.7363H11.9147C11.6841 10.7363 11.5021 10.5543 11.5021 10.3238C11.5021 10.3076 11.5062 10.2874 11.5143 10.2631H15.7366Z" fill="url(#paint7_linear_1_1322)"/>
<path d="M16.877 19.557H13.7952H13.4555H10.3859C13.0673 13.8666 11.6356 11.6341 11.6356 11.6341L11.6234 11.1973L13.6254 11.2822L15.6395 11.1973L15.6273 11.6341C15.6273 11.6341 14.1956 13.8666 16.877 19.557Z" fill="url(#paint8_linear_1_1322)"/>
<path d="M15.6273 11.6341C15.6273 11.6341 14.1956 13.8666 16.877 19.557H15.506C14.8387 18.1495 14.2199 16.7178 13.953 15.1769C13.7952 14.267 13.771 13.2963 13.9408 12.3863C14.0015 12.0102 14.1107 11.6098 14.2806 11.258L15.6395 11.1973L15.6273 11.6341Z" fill="black"/>
<path d="M12.1452 19.5569H10.6892C11.4293 18.4407 12.0966 16.184 12.2908 14.4004C12.4606 12.8959 12.2058 11.8161 11.9996 11.2215L12.497 11.2337C12.7033 11.8767 12.9824 12.9687 13.0309 14.4004C13.0915 16.2082 12.7397 18.4528 12.1452 19.5569Z" fill="url(#paint9_linear_1_1322)"/>
<path d="M15.5788 11.6463H11.672C11.4051 11.6463 11.1988 11.44 11.1988 11.1852C11.1988 10.9183 11.4051 10.6999 11.672 10.6999H15.5788C15.8336 10.6999 16.052 10.9183 16.052 11.1852C16.052 11.44 15.8336 11.6463 15.5788 11.6463Z" fill="#1C1C1C"/>
<path d="M12.6548 11.6463H11.9874C11.8985 11.5654 11.8216 11.4724 11.7569 11.3672C11.672 11.1973 11.6841 11.0154 11.8054 10.8698C11.8782 10.7848 11.9632 10.7363 12.0724 10.6999H12.6062C12.3878 10.8455 12.2422 11.0639 12.3636 11.3429C12.4242 11.4764 12.5334 11.5735 12.6548 11.6463Z" fill="url(#paint10_linear_1_1322)"/>
<path style="mix-blend-mode:multiply" d="M16.0399 11.1002C16.048 11.1245 16.052 11.1528 16.052 11.1851C16.052 11.4399 15.8336 11.6462 15.5788 11.6462H11.672C11.4051 11.6462 11.1988 11.4399 11.1988 11.1851C11.1988 11.1528 11.1988 11.1245 11.1988 11.1002H16.0399Z" fill="url(#paint11_linear_1_1322)"/>
<path d="M16.9013 20.5882V20.6004H13.9287H13.3342H10.3616V20.5882C10.9198 20.5154 10.9319 19.654 10.3859 19.5448H13.3342H13.9287H16.8649C16.319 19.654 16.3311 20.5154 16.9013 20.5882Z" fill="url(#paint12_linear_1_1322)"/>
<path d="M16.9013 20.5882V20.6004H14.9236C14.6203 20.4548 14.4869 20.2242 14.5839 19.8845C14.6203 19.7511 14.7052 19.6419 14.8144 19.5448H16.8649C16.3189 19.654 16.3311 20.5154 16.9013 20.5882Z" fill="black"/>
<path d="M19.2187 22.9785C19.1702 23.1605 18.9882 23.3182 18.8669 23.4396C18.6849 23.6215 17.9569 24.2767 17.9447 24.2767C17.9447 24.2767 15.4089 24.2525 13.6254 24.2525C11.8418 24.2525 9.31816 24.2767 9.31816 24.2767C9.30603 24.2767 8.56592 23.6215 8.39605 23.4396C8.26259 23.3182 8.09272 23.1605 8.04419 22.9785C8.00779 22.8329 8.08059 22.663 8.20192 22.566C8.35965 22.4204 8.51738 22.2869 8.67511 22.1413C8.82071 22.02 8.9663 21.8987 9.09977 21.7652C9.36669 21.5225 10.1917 20.746 10.3616 20.5883H11.9025H15.3483H16.8892C17.0712 20.746 17.8962 21.5225 18.151 21.7652C18.2966 21.8987 18.4422 22.02 18.5757 22.1413C18.7334 22.2869 18.8911 22.4204 19.061 22.566C19.1702 22.663 19.2551 22.8329 19.2187 22.9785Z" fill="url(#paint13_linear_1_1322)"/>
<path d="M19.2188 22.9785C19.1702 23.1605 18.9882 23.3182 18.8669 23.4396C18.6849 23.6215 17.9569 24.2767 17.9448 24.2767C17.9448 24.2767 17.4716 24.2646 16.7921 24.2646C16.9135 24.1311 17.0469 23.9855 17.1683 23.8399C17.3988 23.573 17.5565 23.2576 17.6051 22.8936C17.6536 22.4568 17.1076 21.9836 16.8285 21.6196C16.5495 21.2677 16.2583 20.9401 15.9671 20.5883H16.8892C17.0712 20.746 17.8963 21.5225 18.151 21.7652C18.2966 21.8987 18.4422 22.02 18.5757 22.1413C18.7334 22.2869 18.8912 22.4204 19.061 22.566C19.1702 22.663 19.2552 22.8329 19.2188 22.9785Z" fill="black"/>
<path d="M9.6215 24.2646C9.42737 24.2767 9.31818 24.2767 9.31818 24.2767C9.30604 24.2767 8.56593 23.6215 8.39607 23.4396C8.28687 23.3304 8.4082 23.2212 8.34753 23.0756C8.69939 22.7844 10.6892 20.8552 10.9076 20.5883H11.7448C10.4951 22.6388 10.0826 22.9178 9.6215 24.2646Z" fill="url(#paint14_linear_1_1322)"/>
<path d="M19.2188 22.9057C19.2188 22.9299 19.2188 22.9542 19.2188 22.9785C19.1702 23.1605 18.9882 23.3182 18.8669 23.4395C18.6849 23.6215 17.9569 24.2767 17.9448 24.2767C17.9448 24.2767 15.409 24.2524 13.6254 24.2524C11.8419 24.2524 9.3182 24.2767 9.3182 24.2767C9.30607 24.2767 8.56596 23.6215 8.3961 23.4395C8.26263 23.3182 8.09277 23.1605 8.04423 22.9785C8.03615 22.9542 8.0321 22.9299 8.0321 22.9057H19.2188Z" fill="url(#paint15_linear_1_1322)"/>
<path d="M19.2187 22.9057C19.2187 22.9299 19.2187 22.9542 19.2187 22.9785C19.1702 23.1605 18.9882 23.3182 18.8669 23.4395C18.6849 23.6215 17.9569 24.2767 17.9448 24.2767C17.9448 24.2767 14.9236 24.2646 13.2614 24.2524C13.4394 24.2363 13.6133 24.212 13.7831 24.1796C14.5597 24.0583 14.9479 23.852 15.591 23.3546C15.7487 23.2333 15.8943 23.0877 15.9792 22.9057H19.2187Z" fill="black"/>
<path d="M18.9518 24.8834L8.37175 24.8955C8.37175 24.847 8.35962 24.7257 8.35962 24.6771C8.35962 24.3617 8.60228 24.1069 8.90561 24.1069H18.4179C18.7212 24.1069 18.9639 24.3617 18.9639 24.6771C18.9639 24.7257 18.9639 24.8349 18.9518 24.8834Z" fill="url(#paint16_linear_1_1322)"/>
<g style="mix-blend-mode:multiply" opacity="0.5">
<path d="M18.9639 24.6772C18.9639 24.7257 18.9639 24.8349 18.9518 24.8834L8.37175 24.8956C8.37175 24.847 8.35962 24.7257 8.35962 24.6772C8.35962 24.6529 8.36366 24.6246 8.37175 24.5922H18.9518C18.9599 24.6246 18.9639 24.6529 18.9639 24.6772Z" fill="#221F1F"/>
</g>
<path d="M20.7354 27.1765H6.58826C6.58826 25.8783 7.40117 24.8227 8.39608 24.8227H18.9276C19.9225 24.8227 20.7354 25.8783 20.7354 27.1765Z" fill="url(#paint17_linear_1_1322)"/>
<path d="M20.7354 27.1765H10.3373C11.3201 27.0795 12.2786 26.8611 13.2007 26.582C14.0258 26.3151 15.7972 25.757 16.5737 24.8227H18.9275C19.9224 24.8227 20.7354 25.8783 20.7354 27.1765Z" fill="#020202"/>
<g style="mix-blend-mode:screen" opacity="0.5">
<path d="M10.8712 24.8227C10.3131 25.3809 10.1917 26.4364 10.1917 27.1765H7.63165C7.76512 25.9996 8.66296 24.9926 9.34241 24.8227H10.8712Z" fill="url(#paint18_linear_1_1322)"/>
</g>
<defs>
<filter id="filter0_f_1_1322" x="0.117676" y="22.3529" width="26.9412" height="9.64706" filterUnits="userSpaceOnUse" color-interpolation-filters="sRGB">
<feFlood flood-opacity="0" result="BackgroundImageFix"/>
<feBlend mode="normal" in="SourceGraphic" in2="BackgroundImageFix" result="shape"/>
<feGaussianBlur stdDeviation="2" result="effect1_foregroundBlur_1_1322"/>
</filter>
<linearGradient id="paint0_linear_1_1322" x1="213.272" y1="340.884" x2="580.199" y2="340.884" gradientUnits="userSpaceOnUse">
<stop stop-color="#434546"/>
<stop offset="0.0001" stop-color="#2D2B2C"/>
<stop offset="0.9" stop-color="#201E1E"/>
</linearGradient>
<linearGradient id="paint1_linear_1_1322" x1="12.4121" y1="1.38171" x2="12.4121" y2="4.59697" gradientUnits="userSpaceOnUse">
<stop stop-color="white" stop-opacity="0"/>
<stop offset="1" stop-color="white" stop-opacity="0.5"/>
</linearGradient>
<linearGradient id="paint2_linear_1_1322" x1="12.0943" y1="4.29362" x2="12.0943" y2="10.0204" gradientUnits="userSpaceOnUse">
<stop stop-color="white" stop-opacity="0"/>
<stop offset="1" stop-color="white" stop-opacity="0.5"/>
</linearGradient>
<linearGradient id="paint3_linear_1_1322" x1="117.103" y1="33.2478" x2="307.315" y2="33.2478" gradientUnits="userSpaceOnUse">
<stop stop-color="#434546"/>
<stop offset="0.0001" stop-color="#2D2B2C"/>
<stop offset="0.9" stop-color="#201E1E"/>
</linearGradient>
<linearGradient id="paint4_linear_1_1322" x1="12.5596" y1="0.823578" x2="12.5596" y2="1.64862" gradientUnits="userSpaceOnUse">
<stop stop-color="white" stop-opacity="0"/>
<stop offset="1" stop-color="white" stop-opacity="0.5"/>
</linearGradient>
<linearGradient id="paint5_linear_1_1322" x1="1301.55" y1="149.024" x2="1301.55" y2="150.756" gradientUnits="userSpaceOnUse">
<stop stop-color="#A3A5A8"/>
<stop offset="0.4" stop-color="#434546"/>
<stop offset="0.9" stop-color="#201E1E"/>
</linearGradient>
<linearGradient id="paint6_linear_1_1322" x1="12.4661" y1="9.91125" x2="12.4661" y2="10.7363" gradientUnits="userSpaceOnUse">
<stop stop-color="white" stop-opacity="0"/>
<stop offset="1" stop-color="white" stop-opacity="0.5"/>
</linearGradient>
<linearGradient id="paint7_linear_1_1322" x1="1504.14" y1="318.826" x2="1504.14" y2="323.18" gradientUnits="userSpaceOnUse">
<stop stop-color="#A3A5A8"/>
<stop offset="0.4" stop-color="#434546"/>
<stop offset="0.9" stop-color="#201E1E"/>
</linearGradient>
<linearGradient id="paint8_linear_1_1322" x1="193.437" y1="339.732" x2="523.838" y2="339.732" gradientUnits="userSpaceOnUse">
<stop stop-color="#434546"/>
<stop offset="0.0001" stop-color="#2D2B2C"/>
<stop offset="0.9" stop-color="#201E1E"/>
</linearGradient>
<linearGradient id="paint9_linear_1_1322" x1="11.8634" y1="11.2215" x2="11.8634" y2="19.5569" gradientUnits="userSpaceOnUse">
<stop stop-color="white" stop-opacity="0"/>
<stop offset="1" stop-color="white" stop-opacity="0.5"/>
</linearGradient>
<linearGradient id="paint10_linear_1_1322" x1="12.1785" y1="10.6999" x2="12.1785" y2="11.6463" gradientUnits="userSpaceOnUse">
<stop stop-color="white" stop-opacity="0"/>
<stop offset="1" stop-color="white" stop-opacity="0.5"/>
</linearGradient>
<linearGradient id="paint11_linear_1_1322" x1="1721.96" y1="370.523" x2="1721.96" y2="376.256" gradientUnits="userSpaceOnUse">
<stop stop-color="#A3A5A8"/>
<stop offset="0.4" stop-color="#434546"/>
<stop offset="0.9" stop-color="#201E1E"/>
</linearGradient>
<linearGradient id="paint12_linear_1_1322" x1="2054.67" y1="794.021" x2="2376.43" y2="794.021" gradientUnits="userSpaceOnUse">
<stop stop-color="#201E1E"/>
<stop offset="0.2" stop-color="#A3A5A8"/>
<stop offset="0.6" stop-color="#434546"/>
<stop offset="1" stop-color="#201E1E"/>
</linearGradient>
<linearGradient id="paint13_linear_1_1322" x1="323.663" y1="165.544" x2="893.36" y2="165.544" gradientUnits="userSpaceOnUse">
<stop stop-color="#434546"/>
<stop offset="0.0001" stop-color="#2D2B2C"/>
<stop offset="0.9" stop-color="#201E1E"/>
</linearGradient>
<linearGradient id="paint14_linear_1_1322" x1="10.0462" y1="20.5883" x2="10.0462" y2="24.2767" gradientUnits="userSpaceOnUse">
<stop stop-color="white" stop-opacity="0"/>
<stop offset="1" stop-color="white" stop-opacity="0.5"/>
</linearGradient>
<linearGradient id="paint15_linear_1_1322" x1="3229.79" y1="1066.81" x2="4187.37" y2="1066.81" gradientUnits="userSpaceOnUse">
<stop stop-color="#201E1E"/>
<stop offset="0.2" stop-color="#A3A5A8"/>
<stop offset="0.6" stop-color="#434546"/>
<stop offset="1" stop-color="#201E1E"/>
</linearGradient>
<linearGradient id="paint16_linear_1_1322" x1="3323.26" y1="602.737" x2="3844.99" y2="602.737" gradientUnits="userSpaceOnUse">
<stop stop-color="#201E1E"/>
<stop offset="0.2" stop-color="#A3A5A8"/>
<stop offset="0.6" stop-color="#434546"/>
<stop offset="1" stop-color="#201E1E"/>
</linearGradient>
<linearGradient id="paint17_linear_1_1322" x1="405.537" y1="117.327" x2="1125.63" y2="117.327" gradientUnits="userSpaceOnUse">
<stop stop-color="#434546"/>
<stop offset="0.0001" stop-color="#2D2B2C"/>
<stop offset="0.9" stop-color="#201E1E"/>
</linearGradient>
<linearGradient id="paint18_linear_1_1322" x1="9.25141" y1="24.8227" x2="9.25141" y2="27.1765" gradientUnits="userSpaceOnUse">
<stop stop-color="white" stop-opacity="0"/>
<stop offset="1" stop-color="white" stop-opacity="0.5"/>
</linearGradient>
</defs>
</svg>
