<svg width="29" height="32" viewBox="0 0 29 32" fill="none" xmlns="http://www.w3.org/2000/svg">
<g filter="url(#filter0_f_1_1294)">
<ellipse cx="14.5625" cy="27.125" rx="10.0625" ry="0.875" fill="black"/>
</g>
<path d="M20.9626 24.5571L9.1283 24.5706C9.11472 24.5163 9.10114 24.3804 9.10114 24.3261C9.10114 23.9728 9.37287 23.6875 9.71255 23.6875H20.3511C20.6908 23.6875 20.9626 23.9728 20.9626 24.3261C20.9626 24.3804 20.9761 24.5027 20.9626 24.5571Z" fill="url(#paint0_linear_1_1294)"/>
<g style="mix-blend-mode:multiply" opacity="0.5">
<path d="M20.9626 24.3261C20.9626 24.3804 20.9761 24.5027 20.9626 24.557L9.1283 24.5706C9.11472 24.5163 9.10114 24.3804 9.10114 24.3261C9.10114 24.2989 9.10566 24.2672 9.11472 24.2309H20.9626C20.9626 24.2672 20.9626 24.2989 20.9626 24.3261Z" fill="#221F1F"/>
</g>
<path d="M22.9463 27.125H7.13104C7.13104 25.6712 8.02779 24.4891 9.14192 24.4891H20.9218C22.0495 24.4891 22.9463 25.6712 22.9463 27.125Z" fill="url(#paint1_linear_1_1294)"/>
<path d="M22.9463 27.125H7.13104C10.1609 27.0842 11.6011 26.7581 11.968 26.6766C13.5713 26.3369 15.1202 25.7119 16.3973 24.6929C16.4698 24.6295 16.5423 24.5616 16.6147 24.4891H20.9218C22.0495 24.4891 22.9463 25.6712 22.9463 27.125Z" fill="#221F1F"/>
<path d="M18.0685 3.90489C18.0685 5.57609 16.7098 6.93478 15.0386 6.93478C13.3538 6.93478 12.0087 5.57609 12.0087 3.90489C12.0087 2.23369 13.3538 0.875 15.0386 0.875C16.7098 0.875 18.0685 2.23369 18.0685 3.90489Z" fill="url(#paint2_linear_1_1294)"/>
<path d="M18.0685 3.90489C18.0685 5.57609 16.7098 6.93478 15.0386 6.93478C13.3538 6.93478 12.0087 5.57609 12.0087 3.90489C12.0087 2.23369 13.3538 0.875 15.0386 0.875C16.7098 0.875 18.0685 2.23369 18.0685 3.90489Z" fill="url(#paint3_linear_1_1294)"/>
<path d="M20.093 17.1114L15.487 17.3831H14.5767L9.9707 17.1114C13.0821 15.481 13.3403 9.36683 13.3403 9.36683L13.4354 8.71465L15.0386 8.87769L16.6283 8.71465L16.7234 9.36683C16.7234 9.36683 16.9816 15.481 20.093 17.1114Z" fill="url(#paint4_linear_1_1294)"/>
<path d="M15.4734 8.83693L16.6283 8.71465L16.7234 9.36683C16.7234 9.36683 16.9816 15.481 20.093 17.1114L17.4571 17.2608C17.3213 17.1522 17.1899 17.0344 17.0631 16.9076C16.4381 16.2418 16.112 15.3723 15.9354 14.5027C15.7316 13.4837 15.6501 12.4646 15.5957 11.432C15.555 10.5625 15.5006 9.69291 15.4734 8.83693Z" fill="#221F1F"/>
<path d="M10.949 8.32062H14.6854H15.3783H19.1147L16.737 9.36682H15.3783H14.6854H13.3267L10.949 8.32062Z" fill="url(#paint5_linear_1_1294)"/>
<path d="M21.574 21.2282C21.4924 22.9809 20.3783 23.6875 20.3783 23.6875H9.68537C9.68537 23.6875 8.57123 22.9809 8.48971 21.2282C8.36743 18.6059 10.5413 17.7907 10.5413 17.7907L13.1093 17.6005L15.025 17.6684L16.9544 17.6005L19.5223 17.7907C19.5223 17.7907 21.6962 18.6059 21.574 21.2282Z" fill="url(#paint6_linear_1_1294)"/>
<path d="M21.574 21.2283C21.4924 22.981 20.3783 23.6875 20.3783 23.6875H17.2533C17.6201 23.3342 17.9326 22.9131 18.1636 22.4647C18.5576 21.731 18.775 20.875 18.7207 20.0326C18.6528 19.1087 18.15 18.3071 17.5386 17.6413L19.5223 17.7908C19.5223 17.7908 21.6962 18.606 21.574 21.2283Z" fill="#221F1F"/>
<path d="M20.093 17.1114L19.5223 17.7908H16.6011H13.3946H10.5413L9.9707 17.1114H20.093Z" fill="url(#paint7_linear_1_1294)"/>
<g opacity="0.5">
<path d="M18.0685 3.90484C18.0685 5.57604 16.7098 6.93473 15.0386 6.93473C13.6528 6.93473 12.4979 6.01082 12.131 4.76082C12.6745 5.49452 13.5577 5.98365 14.5631 5.98365C16.2343 5.98365 17.593 4.62495 17.593 2.95376C17.593 2.65484 17.5386 2.36952 17.4571 2.09778C17.8376 2.6005 18.0685 3.22549 18.0685 3.90484Z" fill="black"/>
</g>
<path d="M19.1147 8.32061H15.3783H14.6854H10.949L13.3267 6.40485H14.6854H15.3783H16.737L19.1147 8.32061Z" fill="url(#paint8_linear_1_1294)"/>
<path d="M19.1147 8.32061H15.3783H14.6854H10.949L13.3267 6.40485H14.6854H15.3783H16.737L19.1147 8.32061Z" fill="url(#paint9_linear_1_1294)"/>
<path d="M15.3376 6.40485H16.737L19.1148 8.32061H16.9273C16.8593 8.19833 16.7778 8.07604 16.6963 7.96735C16.4517 7.62767 16.1392 7.34235 15.8675 7.02985C15.6908 6.82605 15.5142 6.60865 15.3376 6.40485Z" fill="#221F1F"/>
<path d="M10.6501 24.4755H12.4435C11.9001 24.6929 11.4653 25.1821 11.3022 25.7935C11.1799 26.2147 11.1664 26.6766 11.18 27.125H8.58484C8.61201 24.788 10.6093 24.5027 10.6501 24.4755Z" fill="url(#paint10_linear_1_1294)"/>
<path d="M11.3158 17.7907H13.1365C12.987 18.0489 12.8376 18.3206 12.7425 18.4701C12.3484 19.0679 12.0223 19.7065 11.8593 20.413C11.6963 21.1195 11.7234 21.8804 11.9 22.6005C11.9816 22.8994 12.1039 23.1983 12.2669 23.4565C12.3213 23.538 12.3756 23.6195 12.4299 23.7011H10.6093C10.6093 23.7011 10.6093 23.6965 10.6093 23.6875C10.6229 23.6875 10.5957 23.6875 10.5142 23.6195C10.3919 23.5108 10.2968 23.375 10.2017 23.2391C10.0115 22.9674 9.8756 22.682 9.7669 22.3695C9.54951 21.7989 9.52234 21.1739 9.61745 20.5761C9.78049 19.5299 10.3647 18.3614 11.3158 17.8179C11.3249 17.8179 11.3249 17.8089 11.3158 17.7907Z" fill="url(#paint11_linear_1_1294)"/>
<path d="M15.1609 6.39128H13.9517C13.9109 6.35052 13.6935 6.18748 13.612 6.13313C13.4897 6.05161 13.381 5.9565 13.2724 5.84781C13.055 5.63041 12.8919 5.37226 12.7425 5.11411C12.4707 4.57063 12.3484 3.94563 12.3892 3.3478C12.4435 2.74998 12.6745 2.17933 13.0685 1.73096C13.2044 1.56791 13.3675 1.40487 13.5441 1.269C13.8974 1.06519 14.305 0.929326 14.7262 0.888565C13.7615 1.36411 13.0821 2.36955 13.0821 3.49726C13.0821 4.82879 13.9381 6.05161 15.1609 6.39128Z" fill="url(#paint12_linear_1_1294)"/>
<path d="M13.68 9.35327H14.7534C14.7534 9.67936 14.7398 10.1141 14.7262 10.4402C14.6583 11.5544 14.4952 12.6821 14.4001 13.7962C14.3458 14.3533 14.2914 14.9239 14.1555 15.4674C14.0197 16.0109 13.7887 16.5951 13.5305 17.0978C13.5305 17.0978 13.5305 17.1024 13.5305 17.1114H10.9354C10.949 17.1386 11.5468 16.5815 11.5876 16.5272C12.2534 15.7391 12.6338 14.7745 12.9055 13.7962C13.1637 12.9131 13.3539 12.0163 13.4898 11.1196C13.5441 10.7935 13.6392 10.1141 13.68 9.70654C13.7072 9.52991 13.7072 9.39404 13.6936 9.36686C13.6936 9.36686 13.689 9.36233 13.68 9.35327Z" fill="url(#paint13_linear_1_1294)"/>
<path d="M13.5441 8.32063C13.5577 8.32063 13.5577 8.32063 13.5577 8.33421H12.0495C12.1582 8.21193 12.2805 8.11682 12.3892 7.99454C12.7017 7.69563 13.0006 7.4103 13.3131 7.11139C13.5169 6.90758 13.8294 6.6766 13.9653 6.40486C13.9653 6.40486 13.9607 6.40034 13.9517 6.39128H15.1609C15.179 6.40034 15.1972 6.40486 15.2153 6.40486C14.8756 6.73095 13.7886 7.84509 13.6528 8.00813C13.4761 8.22552 13.5441 8.30704 13.5441 8.32063Z" fill="url(#paint14_linear_1_1294)"/>
<defs>
<filter id="filter0_f_1_1294" x="0.5" y="22.25" width="28.125" height="9.75" filterUnits="userSpaceOnUse" color-interpolation-filters="sRGB">
<feFlood flood-opacity="0" result="BackgroundImageFix"/>
<feBlend mode="normal" in="SourceGraphic" in2="BackgroundImageFix" result="shape"/>
<feGaussianBlur stdDeviation="2" result="effect1_foregroundBlur_1_1294"/>
</filter>
<linearGradient id="paint0_linear_1_1294" x1="12856.8" y1="704.863" x2="13860.8" y2="704.863" gradientUnits="userSpaceOnUse">
<stop stop-color="#201E1E"/>
<stop offset="0.2" stop-color="#A3A5A8"/>
<stop offset="0.6" stop-color="#434546"/>
<stop offset="1" stop-color="#201E1E"/>
</linearGradient>
<linearGradient id="paint1_linear_1_1294" x1="453.12" y1="128.079" x2="1258.12" y2="128.079" gradientUnits="userSpaceOnUse">
<stop stop-color="#434546"/>
<stop offset="0.0001" stop-color="#2D2B2C"/>
<stop offset="0.9" stop-color="#201E1E"/>
</linearGradient>
<linearGradient id="paint2_linear_1_1294" x1="6840.78" y1="3657.35" x2="7117.1" y2="3657.35" gradientUnits="userSpaceOnUse">
<stop stop-color="#A3A5A8"/>
<stop offset="0.4" stop-color="#434546"/>
<stop offset="0.9" stop-color="#201E1E"/>
</linearGradient>
<linearGradient id="paint3_linear_1_1294" x1="182.895" y1="239.024" x2="491.337" y2="239.024" gradientUnits="userSpaceOnUse">
<stop stop-color="#434546"/>
<stop offset="0.0001" stop-color="#2D2B2C"/>
<stop offset="0.9" stop-color="#201E1E"/>
</linearGradient>
<linearGradient id="paint4_linear_1_1294" x1="295.419" y1="349.386" x2="810.643" y2="349.386" gradientUnits="userSpaceOnUse">
<stop stop-color="#434546"/>
<stop offset="0.0001" stop-color="#2D2B2C"/>
<stop offset="0.9" stop-color="#201E1E"/>
</linearGradient>
<linearGradient id="paint5_linear_1_1294" x1="9040.65" y1="696.928" x2="9466.9" y2="696.928" gradientUnits="userSpaceOnUse">
<stop stop-color="#201E1E"/>
<stop offset="0.2" stop-color="#A3A5A8"/>
<stop offset="0.6" stop-color="#434546"/>
<stop offset="1" stop-color="#201E1E"/>
</linearGradient>
<linearGradient id="paint6_linear_1_1294" x1="377.741" y1="256.818" x2="1044.24" y2="256.818" gradientUnits="userSpaceOnUse">
<stop stop-color="#434546"/>
<stop offset="0.0001" stop-color="#2D2B2C"/>
<stop offset="0.9" stop-color="#201E1E"/>
</linearGradient>
<linearGradient id="paint7_linear_1_1294" x1="10954.2" y1="508.212" x2="11763" y2="508.212" gradientUnits="userSpaceOnUse">
<stop stop-color="#201E1E"/>
<stop offset="0.2" stop-color="#A3A5A8"/>
<stop offset="0.6" stop-color="#434546"/>
<stop offset="1" stop-color="#201E1E"/>
</linearGradient>
<linearGradient id="paint8_linear_1_1294" x1="9122.3" y1="1240.35" x2="9574.69" y2="1240.35" gradientUnits="userSpaceOnUse">
<stop stop-color="#A3A5A8"/>
<stop offset="0.4" stop-color="#434546"/>
<stop offset="0.9" stop-color="#201E1E"/>
</linearGradient>
<linearGradient id="paint9_linear_1_1294" x1="241.223" y1="81.6945" x2="656.861" y2="81.6945" gradientUnits="userSpaceOnUse">
<stop stop-color="#434546"/>
<stop offset="0.0001" stop-color="#2D2B2C"/>
<stop offset="0.9" stop-color="#201E1E"/>
</linearGradient>
<linearGradient id="paint10_linear_1_1294" x1="10.5142" y1="24.4755" x2="10.5142" y2="27.125" gradientUnits="userSpaceOnUse">
<stop stop-color="white" stop-opacity="0"/>
<stop offset="1" stop-color="white" stop-opacity="0.5"/>
</linearGradient>
<linearGradient id="paint11_linear_1_1294" x1="11.3509" y1="17.7907" x2="11.3509" y2="23.7011" gradientUnits="userSpaceOnUse">
<stop stop-color="white" stop-opacity="0"/>
<stop offset="1" stop-color="white" stop-opacity="0.5"/>
</linearGradient>
<linearGradient id="paint12_linear_1_1294" x1="13.7712" y1="0.888565" x2="13.7712" y2="6.39128" gradientUnits="userSpaceOnUse">
<stop stop-color="white" stop-opacity="0"/>
<stop offset="1" stop-color="white" stop-opacity="0.5"/>
</linearGradient>
<linearGradient id="paint13_linear_1_1294" x1="12.8444" y1="9.35327" x2="12.8444" y2="17.1124" gradientUnits="userSpaceOnUse">
<stop stop-color="white" stop-opacity="0"/>
<stop offset="1" stop-color="white" stop-opacity="0.5"/>
</linearGradient>
<linearGradient id="paint14_linear_1_1294" x1="13.6324" y1="6.39128" x2="13.6324" y2="8.33421" gradientUnits="userSpaceOnUse">
<stop stop-color="white" stop-opacity="0"/>
<stop offset="1" stop-color="white" stop-opacity="0.5"/>
</linearGradient>
</defs>
</svg>
